G04 #@! TF.GenerationSoftware,KiCad,Pcbnew,(7.0.0-0)*
G04 #@! TF.CreationDate,2024-03-30T14:09:04+02:00*
G04 #@! TF.ProjectId,radio-battery-replacement,72616469-6f2d-4626-9174-746572792d72,rev?*
G04 #@! TF.SameCoordinates,Original*
G04 #@! TF.FileFunction,Copper,L1,Top*
G04 #@! TF.FilePolarity,Positive*
%FSLAX46Y46*%
G04 Gerber Fmt 4.6, Leading zero omitted, Abs format (unit mm)*
G04 Created by KiCad (PCBNEW (7.0.0-0)) date 2024-03-30 14:09:04*
%MOMM*%
%LPD*%
G01*
G04 APERTURE LIST*
G04 Aperture macros list*
%AMRoundRect*
0 Rectangle with rounded corners*
0 $1 Rounding radius*
0 $2 $3 $4 $5 $6 $7 $8 $9 X,Y pos of 4 corners*
0 Add a 4 corners polygon primitive as box body*
4,1,4,$2,$3,$4,$5,$6,$7,$8,$9,$2,$3,0*
0 Add four circle primitives for the rounded corners*
1,1,$1+$1,$2,$3*
1,1,$1+$1,$4,$5*
1,1,$1+$1,$6,$7*
1,1,$1+$1,$8,$9*
0 Add four rect primitives between the rounded corners*
20,1,$1+$1,$2,$3,$4,$5,0*
20,1,$1+$1,$4,$5,$6,$7,0*
20,1,$1+$1,$6,$7,$8,$9,0*
20,1,$1+$1,$8,$9,$2,$3,0*%
G04 Aperture macros list end*
G04 #@! TA.AperFunction,SMDPad,CuDef*
%ADD10R,0.700000X1.200000*%
G04 #@! TD*
G04 #@! TA.AperFunction,SMDPad,CuDef*
%ADD11R,0.760000X1.200000*%
G04 #@! TD*
G04 #@! TA.AperFunction,SMDPad,CuDef*
%ADD12R,0.800000X1.200000*%
G04 #@! TD*
G04 #@! TA.AperFunction,SMDPad,CuDef*
%ADD13R,1.800000X1.350000*%
G04 #@! TD*
G04 #@! TA.AperFunction,SMDPad,CuDef*
%ADD14R,1.800000X1.500000*%
G04 #@! TD*
G04 #@! TA.AperFunction,SMDPad,CuDef*
%ADD15RoundRect,0.250000X-0.400000X-0.625000X0.400000X-0.625000X0.400000X0.625000X-0.400000X0.625000X0*%
G04 #@! TD*
G04 #@! TA.AperFunction,ViaPad*
%ADD16C,0.800000*%
G04 #@! TD*
G04 #@! TA.AperFunction,Conductor*
%ADD17C,0.250000*%
G04 #@! TD*
G04 #@! TA.AperFunction,Conductor*
%ADD18C,0.500000*%
G04 #@! TD*
G04 APERTURE END LIST*
D10*
X110999999Y-72967499D03*
D11*
X113019999Y-72967499D03*
D12*
X114249999Y-72967499D03*
D10*
X111999999Y-72967499D03*
D11*
X109979999Y-72967499D03*
D12*
X108749999Y-72967499D03*
D13*
X106374999Y-73022499D03*
D14*
X106374999Y-76602499D03*
D13*
X116624999Y-73022499D03*
D14*
X116624999Y-76602499D03*
D15*
X121450000Y-77000000D03*
X124550000Y-77000000D03*
X121450000Y-74000000D03*
X124550000Y-74000000D03*
D16*
X98000000Y-117000000D03*
X99000000Y-117000000D03*
X101000000Y-117000000D03*
X100000000Y-117000000D03*
X111000000Y-118000000D03*
X130000000Y-80000000D03*
X127000000Y-111000000D03*
X113000000Y-70000000D03*
X128000000Y-71000000D03*
X112000000Y-118000000D03*
X125000000Y-118000000D03*
X113000000Y-118000000D03*
X110000000Y-70000000D03*
X92000000Y-77000000D03*
X127000000Y-80000000D03*
X126000000Y-71000000D03*
X95000000Y-70000000D03*
X130000000Y-111000000D03*
X95000000Y-111000000D03*
X109000000Y-77000000D03*
X110000000Y-118000000D03*
X126000000Y-118000000D03*
X92000000Y-111000000D03*
X127000000Y-118000000D03*
X114000000Y-77000000D03*
X95000000Y-77000000D03*
X99000000Y-70000000D03*
D17*
X121450000Y-72868746D02*
X119416608Y-70835354D01*
X111000000Y-72000000D02*
X111000000Y-72967500D01*
X112164646Y-70835354D02*
X111000000Y-72000000D01*
X121450000Y-74000000D02*
X121450000Y-72868746D01*
X119416608Y-70835354D02*
X112164646Y-70835354D01*
D18*
X97000000Y-115000000D02*
X97000000Y-118000000D01*
X113020000Y-72967500D02*
X113020000Y-74398750D01*
X109980000Y-72967500D02*
X109980000Y-71980000D01*
X112418750Y-75000000D02*
X110500000Y-75000000D01*
X109980000Y-74480000D02*
X109980000Y-72967500D01*
X109980000Y-71980000D02*
X109000000Y-71000000D01*
X109000000Y-71000000D02*
X99000000Y-71000000D01*
X113020000Y-74398750D02*
X112418750Y-75000000D01*
X97000000Y-73000000D02*
X97000000Y-115000000D01*
X99000000Y-71000000D02*
X97000000Y-73000000D01*
X110500000Y-75000000D02*
X109980000Y-74480000D01*
D17*
X121450000Y-77000000D02*
X119019533Y-74569533D01*
X118285354Y-71285354D02*
X112832146Y-71285354D01*
X119019533Y-74569533D02*
X119019533Y-72019533D01*
X112000000Y-72117500D02*
X112000000Y-72967500D01*
X119019533Y-72019533D02*
X118285354Y-71285354D01*
X112832146Y-71285354D02*
X112000000Y-72117500D01*
G04 #@! TA.AperFunction,Conductor*
G36*
X101938000Y-116016613D02*
G01*
X101983387Y-116062000D01*
X102000000Y-116124000D01*
X102000000Y-117850500D01*
X101983387Y-117912500D01*
X101938000Y-117957887D01*
X101876000Y-117974500D01*
X99510562Y-117974500D01*
X99504602Y-117973912D01*
X99503960Y-117974039D01*
X99500000Y-117972399D01*
X99494928Y-117974500D01*
X99480483Y-117980483D01*
X99472399Y-118000000D01*
X99474039Y-118003960D01*
X99473912Y-118004601D01*
X99474500Y-118010563D01*
X99474500Y-118600500D01*
X99457887Y-118662500D01*
X99412500Y-118707887D01*
X99350500Y-118724500D01*
X94649500Y-118724500D01*
X94587500Y-118707887D01*
X94542113Y-118662500D01*
X94525500Y-118600500D01*
X94525500Y-118010563D01*
X94526087Y-118004601D01*
X94525959Y-118003961D01*
X94527601Y-118000000D01*
X94519517Y-117980483D01*
X94505072Y-117974500D01*
X94500000Y-117972399D01*
X94496039Y-117974039D01*
X94495397Y-117973912D01*
X94489438Y-117974500D01*
X92124000Y-117974500D01*
X92062000Y-117957887D01*
X92016613Y-117912500D01*
X92000000Y-117850500D01*
X92000000Y-116507798D01*
X92012599Y-116453338D01*
X92047836Y-116409946D01*
X92098550Y-116386438D01*
X92148717Y-116387473D01*
X92148861Y-116386616D01*
X92381880Y-116425500D01*
X92612987Y-116425500D01*
X92618120Y-116425500D01*
X92851139Y-116386616D01*
X93074579Y-116309908D01*
X93282346Y-116197470D01*
X93468773Y-116052368D01*
X93480143Y-116040016D01*
X93521563Y-116010444D01*
X93571373Y-116000000D01*
X101876000Y-116000000D01*
X101938000Y-116016613D01*
G37*
G04 #@! TD.AperFunction*
G04 #@! TA.AperFunction,Conductor*
G36*
X128412500Y-69292113D02*
G01*
X128457887Y-69337500D01*
X128474500Y-69399500D01*
X128474500Y-69989438D01*
X128473912Y-69995397D01*
X128474039Y-69996039D01*
X128472399Y-70000000D01*
X128474500Y-70005072D01*
X128480483Y-70019517D01*
X128500000Y-70027601D01*
X128503961Y-70025959D01*
X128504601Y-70026087D01*
X128510563Y-70025500D01*
X132850500Y-70025500D01*
X132912500Y-70042113D01*
X132957887Y-70087500D01*
X132974500Y-70149500D01*
X132974500Y-117850500D01*
X132957887Y-117912500D01*
X132912500Y-117957887D01*
X132850500Y-117974500D01*
X128510562Y-117974500D01*
X128504602Y-117973912D01*
X128503960Y-117974039D01*
X128500000Y-117972399D01*
X128494928Y-117974500D01*
X128480483Y-117980483D01*
X128472399Y-118000000D01*
X128474039Y-118003960D01*
X128473912Y-118004601D01*
X128474500Y-118010563D01*
X128474500Y-118600500D01*
X128457887Y-118662500D01*
X128412500Y-118707887D01*
X128350500Y-118724500D01*
X123649500Y-118724500D01*
X123587500Y-118707887D01*
X123542113Y-118662500D01*
X123525500Y-118600500D01*
X123525500Y-118010563D01*
X123526087Y-118004601D01*
X123525959Y-118003961D01*
X123527601Y-118000000D01*
X123519517Y-117980483D01*
X123505072Y-117974500D01*
X123500000Y-117972399D01*
X123496039Y-117974039D01*
X123495397Y-117973912D01*
X123489438Y-117974500D01*
X114510562Y-117974500D01*
X114504602Y-117973912D01*
X114503960Y-117974039D01*
X114500000Y-117972399D01*
X114494928Y-117974500D01*
X114480483Y-117980483D01*
X114472399Y-118000000D01*
X114474039Y-118003960D01*
X114473912Y-118004601D01*
X114474500Y-118010563D01*
X114474500Y-118600500D01*
X114457887Y-118662500D01*
X114412500Y-118707887D01*
X114350500Y-118724500D01*
X108649500Y-118724500D01*
X108587500Y-118707887D01*
X108542113Y-118662500D01*
X108525500Y-118600500D01*
X108525500Y-118010563D01*
X108526087Y-118004601D01*
X108525959Y-118003961D01*
X108527601Y-118000000D01*
X108519517Y-117980483D01*
X108505072Y-117974500D01*
X108500000Y-117972399D01*
X108496039Y-117974039D01*
X108495397Y-117973912D01*
X108489438Y-117974500D01*
X102637500Y-117974500D01*
X102575500Y-117957887D01*
X102530113Y-117912500D01*
X102513500Y-117850500D01*
X102513500Y-116128053D01*
X102513500Y-116124000D01*
X102496003Y-115991095D01*
X102479390Y-115929095D01*
X102428091Y-115805249D01*
X102346486Y-115698901D01*
X102301099Y-115653514D01*
X102260158Y-115622098D01*
X102201200Y-115576857D01*
X102201196Y-115576855D01*
X102194751Y-115571909D01*
X102187242Y-115568798D01*
X102187241Y-115568798D01*
X102074660Y-115522165D01*
X102074654Y-115522163D01*
X102070905Y-115520610D01*
X102066984Y-115519559D01*
X102066980Y-115519558D01*
X102012823Y-115505046D01*
X102012810Y-115505043D01*
X102008905Y-115503997D01*
X101993025Y-115501906D01*
X101880020Y-115487029D01*
X101880016Y-115487028D01*
X101876000Y-115486500D01*
X101871947Y-115486500D01*
X97882500Y-115486500D01*
X97820500Y-115469887D01*
X97775113Y-115424500D01*
X97758500Y-115362500D01*
X97758500Y-115000000D01*
X129069615Y-115000000D01*
X129070039Y-115005117D01*
X129088699Y-115230314D01*
X129088700Y-115230322D01*
X129089124Y-115235434D01*
X129090381Y-115240399D01*
X129090383Y-115240409D01*
X129140588Y-115438662D01*
X129147117Y-115464445D01*
X129149177Y-115469141D01*
X129239953Y-115676091D01*
X129239956Y-115676097D01*
X129242014Y-115680788D01*
X129244814Y-115685074D01*
X129244818Y-115685081D01*
X129297758Y-115766111D01*
X129371225Y-115878561D01*
X129374701Y-115882337D01*
X129374705Y-115882342D01*
X129527752Y-116048594D01*
X129527756Y-116048598D01*
X129531227Y-116052368D01*
X129717654Y-116197470D01*
X129925421Y-116309908D01*
X130148861Y-116386616D01*
X130381880Y-116425500D01*
X130612987Y-116425500D01*
X130618120Y-116425500D01*
X130851139Y-116386616D01*
X131074579Y-116309908D01*
X131282346Y-116197470D01*
X131468773Y-116052368D01*
X131628775Y-115878561D01*
X131757986Y-115680788D01*
X131852883Y-115464445D01*
X131910876Y-115235434D01*
X131930385Y-115000000D01*
X131910876Y-114764566D01*
X131852883Y-114535555D01*
X131757986Y-114319212D01*
X131628775Y-114121439D01*
X131625297Y-114117661D01*
X131625294Y-114117657D01*
X131472247Y-113951405D01*
X131472242Y-113951400D01*
X131468773Y-113947632D01*
X131375559Y-113875080D01*
X131286395Y-113805681D01*
X131286391Y-113805678D01*
X131282346Y-113802530D01*
X131277841Y-113800092D01*
X131277838Y-113800090D01*
X131079083Y-113692529D01*
X131079078Y-113692527D01*
X131074579Y-113690092D01*
X131069733Y-113688428D01*
X131069730Y-113688427D01*
X130900107Y-113630195D01*
X130851139Y-113613384D01*
X130846089Y-113612541D01*
X130846080Y-113612539D01*
X130623182Y-113575344D01*
X130623173Y-113575343D01*
X130618120Y-113574500D01*
X130381880Y-113574500D01*
X130376827Y-113575343D01*
X130376817Y-113575344D01*
X130153919Y-113612539D01*
X130153907Y-113612541D01*
X130148861Y-113613384D01*
X130144008Y-113615049D01*
X130144008Y-113615050D01*
X129930269Y-113688427D01*
X129930262Y-113688430D01*
X129925421Y-113690092D01*
X129920925Y-113692524D01*
X129920916Y-113692529D01*
X129722161Y-113800090D01*
X129722152Y-113800095D01*
X129717654Y-113802530D01*
X129713613Y-113805674D01*
X129713604Y-113805681D01*
X129535275Y-113944481D01*
X129531227Y-113947632D01*
X129527762Y-113951394D01*
X129527752Y-113951405D01*
X129374705Y-114117657D01*
X129374696Y-114117668D01*
X129371225Y-114121439D01*
X129368419Y-114125733D01*
X129368415Y-114125739D01*
X129244818Y-114314918D01*
X129244811Y-114314930D01*
X129242014Y-114319212D01*
X129239959Y-114323896D01*
X129239953Y-114323908D01*
X129149177Y-114530858D01*
X129147117Y-114535555D01*
X129145859Y-114540520D01*
X129145858Y-114540525D01*
X129090383Y-114759590D01*
X129090380Y-114759602D01*
X129089124Y-114764566D01*
X129088700Y-114769675D01*
X129088699Y-114769685D01*
X129076961Y-114911344D01*
X129069615Y-115000000D01*
X97758500Y-115000000D01*
X97758500Y-112000000D01*
X99972399Y-112000000D01*
X99974500Y-112005072D01*
X99980483Y-112019517D01*
X100000000Y-112027601D01*
X100003961Y-112025959D01*
X100004601Y-112026087D01*
X100010563Y-112025500D01*
X122989437Y-112025500D01*
X122995398Y-112026087D01*
X122996037Y-112025959D01*
X123000000Y-112027601D01*
X123019517Y-112019517D01*
X123025500Y-112005072D01*
X123027601Y-112000000D01*
X123025959Y-111996037D01*
X123026087Y-111995397D01*
X123025500Y-111989438D01*
X123025500Y-79110563D01*
X123026087Y-79104601D01*
X123025959Y-79103961D01*
X123027601Y-79100000D01*
X123019517Y-79080483D01*
X123005072Y-79074500D01*
X123000000Y-79072399D01*
X122996039Y-79074039D01*
X122995397Y-79073912D01*
X122989438Y-79074500D01*
X100010562Y-79074500D01*
X100004602Y-79073912D01*
X100003960Y-79074039D01*
X100000000Y-79072399D01*
X99994928Y-79074500D01*
X99980483Y-79080483D01*
X99972399Y-79100000D01*
X99974039Y-79103960D01*
X99973912Y-79104601D01*
X99974500Y-79110563D01*
X99974500Y-111989438D01*
X99973912Y-111995397D01*
X99974039Y-111996039D01*
X99972399Y-112000000D01*
X97758500Y-112000000D01*
X97758500Y-77397018D01*
X104975000Y-77397018D01*
X104975353Y-77403614D01*
X104980573Y-77452167D01*
X104984111Y-77467141D01*
X105028547Y-77586277D01*
X105036962Y-77601689D01*
X105112498Y-77702592D01*
X105124907Y-77715001D01*
X105225810Y-77790537D01*
X105241222Y-77798952D01*
X105360358Y-77843388D01*
X105375332Y-77846926D01*
X105423885Y-77852146D01*
X105430482Y-77852500D01*
X106108674Y-77852500D01*
X106121549Y-77849049D01*
X106125000Y-77836174D01*
X106625000Y-77836174D01*
X106628450Y-77849049D01*
X106641326Y-77852500D01*
X107319518Y-77852500D01*
X107326114Y-77852146D01*
X107374667Y-77846926D01*
X107389641Y-77843388D01*
X107508777Y-77798952D01*
X107524189Y-77790537D01*
X107625092Y-77715001D01*
X107637501Y-77702592D01*
X107713037Y-77601689D01*
X107721452Y-77586277D01*
X107765888Y-77467141D01*
X107769426Y-77452167D01*
X107774646Y-77403614D01*
X107775000Y-77397018D01*
X115225000Y-77397018D01*
X115225353Y-77403614D01*
X115230573Y-77452167D01*
X115234111Y-77467141D01*
X115278547Y-77586277D01*
X115286962Y-77601689D01*
X115362498Y-77702592D01*
X115374907Y-77715001D01*
X115475810Y-77790537D01*
X115491222Y-77798952D01*
X115610358Y-77843388D01*
X115625332Y-77846926D01*
X115673885Y-77852146D01*
X115680482Y-77852500D01*
X116358674Y-77852500D01*
X116371549Y-77849049D01*
X116375000Y-77836174D01*
X116875000Y-77836174D01*
X116878450Y-77849049D01*
X116891326Y-77852500D01*
X117569518Y-77852500D01*
X117576114Y-77852146D01*
X117624667Y-77846926D01*
X117639641Y-77843388D01*
X117758777Y-77798952D01*
X117774189Y-77790537D01*
X117875092Y-77715001D01*
X117887501Y-77702592D01*
X117963037Y-77601689D01*
X117971452Y-77586277D01*
X118015888Y-77467141D01*
X118019426Y-77452167D01*
X118024646Y-77403614D01*
X118025000Y-77397018D01*
X118025000Y-76868826D01*
X118021549Y-76855950D01*
X118008674Y-76852500D01*
X116891326Y-76852500D01*
X116878450Y-76855950D01*
X116875000Y-76868826D01*
X116875000Y-77836174D01*
X116375000Y-77836174D01*
X116375000Y-76868826D01*
X116371549Y-76855950D01*
X116358674Y-76852500D01*
X115241326Y-76852500D01*
X115228450Y-76855950D01*
X115225000Y-76868826D01*
X115225000Y-77397018D01*
X107775000Y-77397018D01*
X107775000Y-76868826D01*
X107771549Y-76855950D01*
X107758674Y-76852500D01*
X106641326Y-76852500D01*
X106628450Y-76855950D01*
X106625000Y-76868826D01*
X106625000Y-77836174D01*
X106125000Y-77836174D01*
X106125000Y-76868826D01*
X106121549Y-76855950D01*
X106108674Y-76852500D01*
X104991326Y-76852500D01*
X104978450Y-76855950D01*
X104975000Y-76868826D01*
X104975000Y-77397018D01*
X97758500Y-77397018D01*
X97758500Y-76336174D01*
X104975000Y-76336174D01*
X104978450Y-76349049D01*
X104991326Y-76352500D01*
X106108674Y-76352500D01*
X106121549Y-76349049D01*
X106125000Y-76336174D01*
X106625000Y-76336174D01*
X106628450Y-76349049D01*
X106641326Y-76352500D01*
X107758674Y-76352500D01*
X107771549Y-76349049D01*
X107775000Y-76336174D01*
X115225000Y-76336174D01*
X115228450Y-76349049D01*
X115241326Y-76352500D01*
X116358674Y-76352500D01*
X116371549Y-76349049D01*
X116375000Y-76336174D01*
X116875000Y-76336174D01*
X116878450Y-76349049D01*
X116891326Y-76352500D01*
X118008674Y-76352500D01*
X118021549Y-76349049D01*
X118025000Y-76336174D01*
X118025000Y-75807982D01*
X118024646Y-75801385D01*
X118019426Y-75752832D01*
X118015888Y-75737858D01*
X117971452Y-75618722D01*
X117963037Y-75603310D01*
X117887501Y-75502407D01*
X117875092Y-75489998D01*
X117774189Y-75414462D01*
X117758777Y-75406047D01*
X117639641Y-75361611D01*
X117624667Y-75358073D01*
X117576114Y-75352853D01*
X117569518Y-75352500D01*
X116891326Y-75352500D01*
X116878450Y-75355950D01*
X116875000Y-75368826D01*
X116875000Y-76336174D01*
X116375000Y-76336174D01*
X116375000Y-75368826D01*
X116371549Y-75355950D01*
X116358674Y-75352500D01*
X115680482Y-75352500D01*
X115673885Y-75352853D01*
X115625332Y-75358073D01*
X115610358Y-75361611D01*
X115491222Y-75406047D01*
X115475810Y-75414462D01*
X115374907Y-75489998D01*
X115362498Y-75502407D01*
X115286962Y-75603310D01*
X115278547Y-75618722D01*
X115234111Y-75737858D01*
X115230573Y-75752832D01*
X115225353Y-75801385D01*
X115225000Y-75807982D01*
X115225000Y-76336174D01*
X107775000Y-76336174D01*
X107775000Y-75807982D01*
X107774646Y-75801385D01*
X107769426Y-75752832D01*
X107765888Y-75737858D01*
X107721452Y-75618722D01*
X107713037Y-75603310D01*
X107637501Y-75502407D01*
X107625092Y-75489998D01*
X107524189Y-75414462D01*
X107508777Y-75406047D01*
X107389641Y-75361611D01*
X107374667Y-75358073D01*
X107326114Y-75352853D01*
X107319518Y-75352500D01*
X106641326Y-75352500D01*
X106628450Y-75355950D01*
X106625000Y-75368826D01*
X106625000Y-76336174D01*
X106125000Y-76336174D01*
X106125000Y-75368826D01*
X106121549Y-75355950D01*
X106108674Y-75352500D01*
X105430482Y-75352500D01*
X105423885Y-75352853D01*
X105375332Y-75358073D01*
X105360358Y-75361611D01*
X105241222Y-75406047D01*
X105225810Y-75414462D01*
X105124907Y-75489998D01*
X105112498Y-75502407D01*
X105036962Y-75603310D01*
X105028547Y-75618722D01*
X104984111Y-75737858D01*
X104980573Y-75752832D01*
X104975353Y-75801385D01*
X104975000Y-75807982D01*
X104975000Y-76336174D01*
X97758500Y-76336174D01*
X97758500Y-73742018D01*
X104975000Y-73742018D01*
X104975353Y-73748609D01*
X104980573Y-73797167D01*
X104984111Y-73812141D01*
X105028547Y-73931277D01*
X105036962Y-73946689D01*
X105112498Y-74047592D01*
X105124907Y-74060001D01*
X105225810Y-74135537D01*
X105241222Y-74143952D01*
X105360358Y-74188388D01*
X105375332Y-74191926D01*
X105423885Y-74197146D01*
X105430482Y-74197500D01*
X106108674Y-74197500D01*
X106121549Y-74194049D01*
X106125000Y-74181174D01*
X106625000Y-74181174D01*
X106628450Y-74194049D01*
X106641326Y-74197500D01*
X107319518Y-74197500D01*
X107326114Y-74197146D01*
X107374667Y-74191926D01*
X107389641Y-74188388D01*
X107508777Y-74143952D01*
X107524189Y-74135537D01*
X107625092Y-74060001D01*
X107637501Y-74047592D01*
X107713037Y-73946689D01*
X107721451Y-73931280D01*
X107733972Y-73897709D01*
X107772347Y-73844490D01*
X107832506Y-73818302D01*
X107897606Y-73826478D01*
X107949422Y-73866729D01*
X107987498Y-73917592D01*
X107999907Y-73930001D01*
X108100810Y-74005537D01*
X108116222Y-74013952D01*
X108235358Y-74058388D01*
X108250332Y-74061926D01*
X108298885Y-74067146D01*
X108305482Y-74067500D01*
X108483674Y-74067500D01*
X108496549Y-74064049D01*
X108500000Y-74051174D01*
X108500000Y-73233826D01*
X108496549Y-73220950D01*
X108483674Y-73217500D01*
X107866326Y-73217500D01*
X107852186Y-73221288D01*
X107837294Y-73236181D01*
X107797066Y-73263061D01*
X107749613Y-73272500D01*
X106641326Y-73272500D01*
X106628450Y-73275950D01*
X106625000Y-73288826D01*
X106625000Y-74181174D01*
X106125000Y-74181174D01*
X106125000Y-73288826D01*
X106121549Y-73275950D01*
X106108674Y-73272500D01*
X104991326Y-73272500D01*
X104978450Y-73275950D01*
X104975000Y-73288826D01*
X104975000Y-73742018D01*
X97758500Y-73742018D01*
X97758500Y-73365543D01*
X97767939Y-73318090D01*
X97794819Y-73277862D01*
X99277862Y-71794819D01*
X99318090Y-71767939D01*
X99365543Y-71758500D01*
X105054913Y-71758500D01*
X105114339Y-71773668D01*
X105159228Y-71815460D01*
X105178597Y-71873653D01*
X105167708Y-71934010D01*
X105129225Y-71981766D01*
X105124908Y-71984997D01*
X105112498Y-71997407D01*
X105036962Y-72098310D01*
X105028547Y-72113722D01*
X104984111Y-72232858D01*
X104980573Y-72247832D01*
X104975353Y-72296385D01*
X104975000Y-72302982D01*
X104975000Y-72756174D01*
X104978450Y-72769049D01*
X104991326Y-72772500D01*
X107758674Y-72772500D01*
X107772813Y-72768711D01*
X107787706Y-72753819D01*
X107827934Y-72726939D01*
X107875387Y-72717500D01*
X108876000Y-72717500D01*
X108938000Y-72734113D01*
X108983387Y-72779500D01*
X109000000Y-72841500D01*
X109000000Y-74051174D01*
X109003450Y-74064049D01*
X109016326Y-74067500D01*
X109097500Y-74067500D01*
X109159500Y-74084113D01*
X109204887Y-74129500D01*
X109221500Y-74191500D01*
X109221500Y-74415705D01*
X109220190Y-74433677D01*
X109216659Y-74457789D01*
X109217288Y-74464980D01*
X109217288Y-74464986D01*
X109221028Y-74507725D01*
X109221500Y-74518533D01*
X109221500Y-74524180D01*
X109221916Y-74527739D01*
X109221917Y-74527756D01*
X109225139Y-74555321D01*
X109225505Y-74558905D01*
X109231484Y-74627238D01*
X109232113Y-74634426D01*
X109234381Y-74641273D01*
X109235143Y-74644962D01*
X109235168Y-74645121D01*
X109235220Y-74645302D01*
X109236081Y-74648937D01*
X109236921Y-74656113D01*
X109239391Y-74662900D01*
X109239392Y-74662903D01*
X109262854Y-74727367D01*
X109264038Y-74730771D01*
X109285615Y-74795885D01*
X109287886Y-74802738D01*
X109291675Y-74808881D01*
X109293255Y-74812269D01*
X109293328Y-74812446D01*
X109293417Y-74812605D01*
X109295095Y-74815946D01*
X109297565Y-74822732D01*
X109314905Y-74849096D01*
X109339245Y-74886103D01*
X109341178Y-74889138D01*
X109380970Y-74953651D01*
X109386080Y-74958761D01*
X109388385Y-74961676D01*
X109388502Y-74961838D01*
X109388621Y-74961968D01*
X109391027Y-74964836D01*
X109394999Y-74970874D01*
X109400254Y-74975831D01*
X109400255Y-74975833D01*
X109450173Y-75022928D01*
X109452760Y-75025441D01*
X109918195Y-75490876D01*
X109929973Y-75504503D01*
X109944531Y-75524058D01*
X109950067Y-75528703D01*
X109982932Y-75556280D01*
X109990907Y-75563588D01*
X109994899Y-75567580D01*
X110019505Y-75587036D01*
X110022274Y-75589293D01*
X110080360Y-75638032D01*
X110086818Y-75641275D01*
X110089927Y-75643320D01*
X110090092Y-75643439D01*
X110090251Y-75643528D01*
X110093432Y-75645490D01*
X110099094Y-75649967D01*
X110105635Y-75653017D01*
X110167810Y-75682010D01*
X110171054Y-75683580D01*
X110238812Y-75717609D01*
X110245841Y-75719274D01*
X110249321Y-75720541D01*
X110249517Y-75720622D01*
X110249700Y-75720674D01*
X110253243Y-75721848D01*
X110259794Y-75724903D01*
X110334165Y-75740259D01*
X110337528Y-75741005D01*
X110411344Y-75758500D01*
X110418575Y-75758500D01*
X110422271Y-75758932D01*
X110422468Y-75758963D01*
X110422653Y-75758972D01*
X110426365Y-75759296D01*
X110433442Y-75760758D01*
X110509273Y-75758551D01*
X110512879Y-75758500D01*
X112354455Y-75758500D01*
X112372427Y-75759809D01*
X112396539Y-75763341D01*
X112446477Y-75758971D01*
X112457283Y-75758500D01*
X112459321Y-75758500D01*
X112462930Y-75758500D01*
X112494120Y-75754853D01*
X112497601Y-75754498D01*
X112573176Y-75747887D01*
X112580040Y-75745612D01*
X112583674Y-75744862D01*
X112583869Y-75744830D01*
X112584058Y-75744777D01*
X112587680Y-75743918D01*
X112594863Y-75743079D01*
X112666143Y-75717134D01*
X112669459Y-75715981D01*
X112741488Y-75692114D01*
X112747636Y-75688320D01*
X112751001Y-75686752D01*
X112751188Y-75686674D01*
X112751368Y-75686574D01*
X112754684Y-75684908D01*
X112761482Y-75682435D01*
X112824853Y-75640753D01*
X112827860Y-75638837D01*
X112892401Y-75599030D01*
X112897513Y-75593916D01*
X112900422Y-75591617D01*
X112900593Y-75591493D01*
X112900740Y-75591359D01*
X112903582Y-75588974D01*
X112909624Y-75585001D01*
X112961713Y-75529788D01*
X112964158Y-75527271D01*
X113510880Y-74980549D01*
X113524506Y-74968773D01*
X113544058Y-74954219D01*
X113576278Y-74915818D01*
X113583594Y-74907837D01*
X113584209Y-74907221D01*
X113587581Y-74903850D01*
X113607047Y-74879229D01*
X113609295Y-74876471D01*
X113658032Y-74818390D01*
X113661277Y-74811927D01*
X113663315Y-74808829D01*
X113663435Y-74808662D01*
X113663531Y-74808491D01*
X113665484Y-74805323D01*
X113669967Y-74799655D01*
X113702034Y-74730885D01*
X113703549Y-74727754D01*
X113737609Y-74659938D01*
X113739275Y-74652904D01*
X113740541Y-74649427D01*
X113740622Y-74649230D01*
X113740677Y-74649038D01*
X113741845Y-74645510D01*
X113744903Y-74638956D01*
X113760244Y-74564655D01*
X113761021Y-74561151D01*
X113778500Y-74487406D01*
X113778500Y-74480184D01*
X113778932Y-74476490D01*
X113778964Y-74476290D01*
X113778972Y-74476112D01*
X113779298Y-74472381D01*
X113780759Y-74465308D01*
X113778552Y-74389457D01*
X113778500Y-74385851D01*
X113778500Y-74191500D01*
X113795113Y-74129500D01*
X113840500Y-74084113D01*
X113902500Y-74067500D01*
X113983674Y-74067500D01*
X113996549Y-74064049D01*
X114000000Y-74051174D01*
X114500000Y-74051174D01*
X114503450Y-74064049D01*
X114516326Y-74067500D01*
X114694518Y-74067500D01*
X114701114Y-74067146D01*
X114749667Y-74061926D01*
X114764641Y-74058388D01*
X114883777Y-74013952D01*
X114899189Y-74005537D01*
X115000092Y-73930001D01*
X115012503Y-73917590D01*
X115050577Y-73866730D01*
X115102391Y-73826479D01*
X115167491Y-73818302D01*
X115227650Y-73844489D01*
X115266026Y-73897707D01*
X115278547Y-73931277D01*
X115286962Y-73946689D01*
X115362498Y-74047592D01*
X115374907Y-74060001D01*
X115475810Y-74135537D01*
X115491222Y-74143952D01*
X115610358Y-74188388D01*
X115625332Y-74191926D01*
X115673885Y-74197146D01*
X115680482Y-74197500D01*
X116358674Y-74197500D01*
X116371549Y-74194049D01*
X116375000Y-74181174D01*
X116875000Y-74181174D01*
X116878450Y-74194049D01*
X116891326Y-74197500D01*
X117569518Y-74197500D01*
X117576114Y-74197146D01*
X117624667Y-74191926D01*
X117639641Y-74188388D01*
X117758777Y-74143952D01*
X117774189Y-74135537D01*
X117875092Y-74060001D01*
X117887501Y-74047592D01*
X117963037Y-73946689D01*
X117971452Y-73931277D01*
X118015888Y-73812141D01*
X118019426Y-73797167D01*
X118024647Y-73748609D01*
X118025000Y-73742018D01*
X118025000Y-73288826D01*
X118021549Y-73275950D01*
X118008674Y-73272500D01*
X116891326Y-73272500D01*
X116878450Y-73275950D01*
X116875000Y-73288826D01*
X116875000Y-74181174D01*
X116375000Y-74181174D01*
X116375000Y-73288826D01*
X116371549Y-73275950D01*
X116358674Y-73272500D01*
X115250387Y-73272500D01*
X115202934Y-73263061D01*
X115162706Y-73236181D01*
X115147813Y-73221288D01*
X115133674Y-73217500D01*
X114516326Y-73217500D01*
X114503450Y-73220950D01*
X114500000Y-73233826D01*
X114500000Y-74051174D01*
X114000000Y-74051174D01*
X114000000Y-72841500D01*
X114016613Y-72779500D01*
X114062000Y-72734113D01*
X114124000Y-72717500D01*
X115124613Y-72717500D01*
X115172066Y-72726939D01*
X115212294Y-72753819D01*
X115227186Y-72768711D01*
X115241326Y-72772500D01*
X118008674Y-72772500D01*
X118021549Y-72769049D01*
X118025000Y-72756174D01*
X118025000Y-72302982D01*
X118024646Y-72296385D01*
X118019426Y-72247832D01*
X118016968Y-72237428D01*
X118018667Y-72173976D01*
X118051541Y-72119678D01*
X118106978Y-72088762D01*
X118170450Y-72089328D01*
X118225322Y-72121226D01*
X118349716Y-72245621D01*
X118376594Y-72285847D01*
X118386033Y-72333300D01*
X118386033Y-74490687D01*
X118385501Y-74501970D01*
X118383831Y-74509442D01*
X118384076Y-74517238D01*
X118384076Y-74517240D01*
X118385972Y-74577550D01*
X118386033Y-74581446D01*
X118386033Y-74609389D01*
X118386521Y-74613254D01*
X118386522Y-74613265D01*
X118386552Y-74613503D01*
X118387467Y-74625129D01*
X118388614Y-74661629D01*
X118388615Y-74661636D01*
X118388860Y-74669422D01*
X118391033Y-74676903D01*
X118391035Y-74676913D01*
X118394555Y-74689028D01*
X118398500Y-74708075D01*
X118401059Y-74728330D01*
X118403928Y-74735578D01*
X118403931Y-74735587D01*
X118417371Y-74769534D01*
X118421154Y-74780581D01*
X118433515Y-74823126D01*
X118437486Y-74829841D01*
X118437487Y-74829843D01*
X118443908Y-74840701D01*
X118452463Y-74858164D01*
X118459981Y-74877150D01*
X118464563Y-74883457D01*
X118464564Y-74883458D01*
X118486024Y-74912995D01*
X118492438Y-74922760D01*
X118511018Y-74954177D01*
X118514991Y-74960895D01*
X118520509Y-74966413D01*
X118529422Y-74975326D01*
X118542058Y-74990121D01*
X118549471Y-75000324D01*
X118549476Y-75000329D01*
X118554061Y-75006640D01*
X118573750Y-75022928D01*
X118588200Y-75034882D01*
X118596841Y-75042745D01*
X120255181Y-76701085D01*
X120282061Y-76741313D01*
X120291500Y-76788766D01*
X120291500Y-77672395D01*
X120291500Y-77672414D01*
X120291501Y-77675544D01*
X120291819Y-77678657D01*
X120291820Y-77678676D01*
X120301248Y-77770959D01*
X120302113Y-77779426D01*
X120304244Y-77785857D01*
X120355611Y-77940877D01*
X120355612Y-77940880D01*
X120357885Y-77947738D01*
X120361674Y-77953881D01*
X120361677Y-77953887D01*
X120418992Y-78046809D01*
X120450970Y-78098652D01*
X120576348Y-78224030D01*
X120675419Y-78285137D01*
X120721112Y-78313322D01*
X120721114Y-78313323D01*
X120727262Y-78317115D01*
X120895574Y-78372887D01*
X120999455Y-78383500D01*
X121900544Y-78383499D01*
X122004426Y-78372887D01*
X122172738Y-78317115D01*
X122323652Y-78224030D01*
X122449030Y-78098652D01*
X122542115Y-77947738D01*
X122597887Y-77779426D01*
X122608500Y-77675545D01*
X122608500Y-77671829D01*
X123400001Y-77671829D01*
X123400321Y-77678111D01*
X123409805Y-77770959D01*
X123412623Y-77784122D01*
X123463370Y-77937267D01*
X123469432Y-77950266D01*
X123553890Y-78087194D01*
X123562794Y-78098455D01*
X123676544Y-78212205D01*
X123687805Y-78221109D01*
X123824733Y-78305567D01*
X123837732Y-78311629D01*
X123990874Y-78362375D01*
X124004041Y-78365194D01*
X124096890Y-78374680D01*
X124103168Y-78375000D01*
X124283674Y-78375000D01*
X124296549Y-78371549D01*
X124300000Y-78358674D01*
X124300000Y-78358673D01*
X124800000Y-78358673D01*
X124803450Y-78371548D01*
X124816326Y-78374999D01*
X124996829Y-78374999D01*
X125003111Y-78374678D01*
X125095959Y-78365194D01*
X125109122Y-78362376D01*
X125262267Y-78311629D01*
X125275266Y-78305567D01*
X125412194Y-78221109D01*
X125423455Y-78212205D01*
X125537205Y-78098455D01*
X125546109Y-78087194D01*
X125630567Y-77950266D01*
X125636629Y-77937267D01*
X125687375Y-77784125D01*
X125690194Y-77770958D01*
X125699680Y-77678109D01*
X125700000Y-77671832D01*
X125700000Y-77266326D01*
X125696549Y-77253450D01*
X125683674Y-77250000D01*
X124816326Y-77250000D01*
X124803450Y-77253450D01*
X124800000Y-77266326D01*
X124800000Y-78358673D01*
X124300000Y-78358673D01*
X124300000Y-77266326D01*
X124296549Y-77253450D01*
X124283674Y-77250000D01*
X123416327Y-77250000D01*
X123403451Y-77253450D01*
X123400001Y-77266326D01*
X123400001Y-77671829D01*
X122608500Y-77671829D01*
X122608499Y-76733674D01*
X123400000Y-76733674D01*
X123403450Y-76746549D01*
X123416326Y-76750000D01*
X124283674Y-76750000D01*
X124296549Y-76746549D01*
X124300000Y-76733674D01*
X124800000Y-76733674D01*
X124803450Y-76746549D01*
X124816326Y-76750000D01*
X125683673Y-76750000D01*
X125696548Y-76746549D01*
X125699999Y-76733674D01*
X125699999Y-76328171D01*
X125699678Y-76321888D01*
X125690194Y-76229040D01*
X125687376Y-76215877D01*
X125636629Y-76062732D01*
X125630567Y-76049733D01*
X125546109Y-75912805D01*
X125537205Y-75901544D01*
X125423455Y-75787794D01*
X125412194Y-75778890D01*
X125275266Y-75694432D01*
X125262267Y-75688370D01*
X125109125Y-75637624D01*
X125095958Y-75634805D01*
X125003109Y-75625319D01*
X124996832Y-75625000D01*
X124816326Y-75625000D01*
X124803450Y-75628450D01*
X124800000Y-75641326D01*
X124800000Y-76733674D01*
X124300000Y-76733674D01*
X124300000Y-75641327D01*
X124296549Y-75628451D01*
X124283674Y-75625001D01*
X124103171Y-75625001D01*
X124096888Y-75625321D01*
X124004040Y-75634805D01*
X123990877Y-75637623D01*
X123837732Y-75688370D01*
X123824733Y-75694432D01*
X123687805Y-75778890D01*
X123676544Y-75787794D01*
X123562794Y-75901544D01*
X123553890Y-75912805D01*
X123469432Y-76049733D01*
X123463370Y-76062732D01*
X123412624Y-76215874D01*
X123409805Y-76229041D01*
X123400319Y-76321890D01*
X123400000Y-76328168D01*
X123400000Y-76733674D01*
X122608499Y-76733674D01*
X122608499Y-76324456D01*
X122597887Y-76220574D01*
X122542115Y-76052262D01*
X122449030Y-75901348D01*
X122323652Y-75775970D01*
X122271809Y-75743992D01*
X122178887Y-75686677D01*
X122178881Y-75686674D01*
X122172738Y-75682885D01*
X122165880Y-75680612D01*
X122165877Y-75680611D01*
X122010850Y-75629241D01*
X122010844Y-75629239D01*
X122004426Y-75627113D01*
X121997697Y-75626425D01*
X121997695Y-75626425D01*
X121967667Y-75623357D01*
X121911129Y-75602932D01*
X121870842Y-75558317D01*
X121856272Y-75499996D01*
X121870845Y-75441675D01*
X121911135Y-75397062D01*
X121967671Y-75376641D01*
X122004426Y-75372887D01*
X122172738Y-75317115D01*
X122323652Y-75224030D01*
X122449030Y-75098652D01*
X122542115Y-74947738D01*
X122597887Y-74779426D01*
X122608500Y-74675545D01*
X122608500Y-74671829D01*
X123400001Y-74671829D01*
X123400321Y-74678111D01*
X123409805Y-74770959D01*
X123412623Y-74784122D01*
X123463370Y-74937267D01*
X123469432Y-74950266D01*
X123553890Y-75087194D01*
X123562794Y-75098455D01*
X123676544Y-75212205D01*
X123687805Y-75221109D01*
X123824733Y-75305567D01*
X123837732Y-75311629D01*
X123990874Y-75362375D01*
X124004041Y-75365194D01*
X124096890Y-75374680D01*
X124103168Y-75375000D01*
X124283674Y-75375000D01*
X124296549Y-75371549D01*
X124300000Y-75358674D01*
X124300000Y-75358673D01*
X124800000Y-75358673D01*
X124803450Y-75371548D01*
X124816326Y-75374999D01*
X124996829Y-75374999D01*
X125003111Y-75374678D01*
X125095959Y-75365194D01*
X125109122Y-75362376D01*
X125262267Y-75311629D01*
X125275266Y-75305567D01*
X125412194Y-75221109D01*
X125423455Y-75212205D01*
X125537205Y-75098455D01*
X125546109Y-75087194D01*
X125630567Y-74950266D01*
X125636629Y-74937267D01*
X125687375Y-74784125D01*
X125690194Y-74770958D01*
X125699680Y-74678109D01*
X125700000Y-74671832D01*
X125700000Y-74266326D01*
X125696549Y-74253450D01*
X125683674Y-74250000D01*
X124816326Y-74250000D01*
X124803450Y-74253450D01*
X124800000Y-74266326D01*
X124800000Y-75358673D01*
X124300000Y-75358673D01*
X124300000Y-74266326D01*
X124296549Y-74253450D01*
X124283674Y-74250000D01*
X123416327Y-74250000D01*
X123403451Y-74253450D01*
X123400001Y-74266326D01*
X123400001Y-74671829D01*
X122608500Y-74671829D01*
X122608499Y-73733674D01*
X123400000Y-73733674D01*
X123403450Y-73746549D01*
X123416326Y-73750000D01*
X124283674Y-73750000D01*
X124296549Y-73746549D01*
X124300000Y-73733674D01*
X124800000Y-73733674D01*
X124803450Y-73746549D01*
X124816326Y-73750000D01*
X125683673Y-73750000D01*
X125696548Y-73746549D01*
X125699999Y-73733674D01*
X125699999Y-73328171D01*
X125699678Y-73321888D01*
X125690194Y-73229040D01*
X125687376Y-73215877D01*
X125636629Y-73062732D01*
X125630567Y-73049733D01*
X125599891Y-73000000D01*
X129069615Y-73000000D01*
X129070039Y-73005117D01*
X129088699Y-73230314D01*
X129088700Y-73230322D01*
X129089124Y-73235434D01*
X129090381Y-73240399D01*
X129090383Y-73240409D01*
X129142522Y-73446299D01*
X129147117Y-73464445D01*
X129149177Y-73469141D01*
X129239953Y-73676091D01*
X129239956Y-73676097D01*
X129242014Y-73680788D01*
X129244814Y-73685074D01*
X129244818Y-73685081D01*
X129337198Y-73826479D01*
X129371225Y-73878561D01*
X129374701Y-73882337D01*
X129374705Y-73882342D01*
X129527752Y-74048594D01*
X129527756Y-74048598D01*
X129531227Y-74052368D01*
X129572599Y-74084569D01*
X129713258Y-74194049D01*
X129717654Y-74197470D01*
X129925421Y-74309908D01*
X130148861Y-74386616D01*
X130381880Y-74425500D01*
X130612987Y-74425500D01*
X130618120Y-74425500D01*
X130851139Y-74386616D01*
X131074579Y-74309908D01*
X131282346Y-74197470D01*
X131468773Y-74052368D01*
X131628775Y-73878561D01*
X131757986Y-73680788D01*
X131852883Y-73464445D01*
X131910876Y-73235434D01*
X131930385Y-73000000D01*
X131910876Y-72764566D01*
X131852883Y-72535555D01*
X131757986Y-72319212D01*
X131747382Y-72302982D01*
X131658363Y-72166727D01*
X131628775Y-72121439D01*
X131625297Y-72117661D01*
X131625294Y-72117657D01*
X131472247Y-71951405D01*
X131472242Y-71951400D01*
X131468773Y-71947632D01*
X131373725Y-71873653D01*
X131286395Y-71805681D01*
X131286391Y-71805678D01*
X131282346Y-71802530D01*
X131277841Y-71800092D01*
X131277838Y-71800090D01*
X131079083Y-71692529D01*
X131079078Y-71692527D01*
X131074579Y-71690092D01*
X131069733Y-71688428D01*
X131069730Y-71688427D01*
X130900107Y-71630195D01*
X130851139Y-71613384D01*
X130846089Y-71612541D01*
X130846080Y-71612539D01*
X130623182Y-71575344D01*
X130623173Y-71575343D01*
X130618120Y-71574500D01*
X130381880Y-71574500D01*
X130376827Y-71575343D01*
X130376817Y-71575344D01*
X130153919Y-71612539D01*
X130153907Y-71612541D01*
X130148861Y-71613384D01*
X130144008Y-71615049D01*
X130144008Y-71615050D01*
X129930269Y-71688427D01*
X129930262Y-71688430D01*
X129925421Y-71690092D01*
X129920925Y-71692524D01*
X129920916Y-71692529D01*
X129722161Y-71800090D01*
X129722152Y-71800095D01*
X129717654Y-71802530D01*
X129713613Y-71805674D01*
X129713604Y-71805681D01*
X129548727Y-71934011D01*
X129531227Y-71947632D01*
X129527762Y-71951394D01*
X129527752Y-71951405D01*
X129374705Y-72117657D01*
X129374696Y-72117668D01*
X129371225Y-72121439D01*
X129368419Y-72125733D01*
X129368415Y-72125739D01*
X129244818Y-72314918D01*
X129244811Y-72314930D01*
X129242014Y-72319212D01*
X129239959Y-72323896D01*
X129239953Y-72323908D01*
X129149177Y-72530858D01*
X129147117Y-72535555D01*
X129145859Y-72540520D01*
X129145858Y-72540525D01*
X129090383Y-72759590D01*
X129090380Y-72759602D01*
X129089124Y-72764566D01*
X129088700Y-72769675D01*
X129088699Y-72769685D01*
X129075130Y-72933442D01*
X129069615Y-73000000D01*
X125599891Y-73000000D01*
X125546109Y-72912805D01*
X125537205Y-72901544D01*
X125423455Y-72787794D01*
X125412194Y-72778890D01*
X125275266Y-72694432D01*
X125262267Y-72688370D01*
X125109125Y-72637624D01*
X125095958Y-72634805D01*
X125003109Y-72625319D01*
X124996832Y-72625000D01*
X124816326Y-72625000D01*
X124803450Y-72628450D01*
X124800000Y-72641326D01*
X124800000Y-73733674D01*
X124300000Y-73733674D01*
X124300000Y-72641327D01*
X124296549Y-72628451D01*
X124283674Y-72625001D01*
X124103171Y-72625001D01*
X124096888Y-72625321D01*
X124004040Y-72634805D01*
X123990877Y-72637623D01*
X123837732Y-72688370D01*
X123824733Y-72694432D01*
X123687805Y-72778890D01*
X123676544Y-72787794D01*
X123562794Y-72901544D01*
X123553890Y-72912805D01*
X123469432Y-73049733D01*
X123463370Y-73062732D01*
X123412624Y-73215874D01*
X123409805Y-73229041D01*
X123400319Y-73321890D01*
X123400000Y-73328168D01*
X123400000Y-73733674D01*
X122608499Y-73733674D01*
X122608499Y-73324456D01*
X122597887Y-73220574D01*
X122542115Y-73052262D01*
X122449030Y-72901348D01*
X122323652Y-72775970D01*
X122172738Y-72682885D01*
X122165886Y-72680614D01*
X122165883Y-72680613D01*
X122096600Y-72657655D01*
X122057791Y-72636495D01*
X122028873Y-72603071D01*
X122025619Y-72597569D01*
X122017065Y-72580105D01*
X122012425Y-72568386D01*
X122009552Y-72561129D01*
X121983512Y-72525288D01*
X121977098Y-72515524D01*
X121954542Y-72477384D01*
X121940107Y-72462949D01*
X121927470Y-72448153D01*
X121921703Y-72440216D01*
X121915472Y-72431639D01*
X121909460Y-72426666D01*
X121909457Y-72426662D01*
X121881325Y-72403389D01*
X121872685Y-72395527D01*
X119920305Y-70443146D01*
X119912708Y-70434798D01*
X119908608Y-70428336D01*
X119902922Y-70422996D01*
X119902920Y-70422994D01*
X119858939Y-70381694D01*
X119856142Y-70378983D01*
X119839135Y-70361976D01*
X119836378Y-70359219D01*
X119833094Y-70356671D01*
X119824232Y-70349100D01*
X119797617Y-70324108D01*
X119797611Y-70324103D01*
X119791929Y-70318768D01*
X119785096Y-70315012D01*
X119785090Y-70315007D01*
X119774037Y-70308930D01*
X119757782Y-70298253D01*
X119747817Y-70290524D01*
X119747814Y-70290522D01*
X119741649Y-70285740D01*
X119705095Y-70269922D01*
X119700984Y-70268143D01*
X119690494Y-70263004D01*
X119683920Y-70259390D01*
X119681687Y-70258162D01*
X119635091Y-70213292D01*
X119617434Y-70151059D01*
X119633521Y-70088402D01*
X119678974Y-70042374D01*
X119741424Y-70025500D01*
X122489437Y-70025500D01*
X122495398Y-70026087D01*
X122496037Y-70025959D01*
X122500000Y-70027601D01*
X122519517Y-70019517D01*
X122525500Y-70005072D01*
X122527601Y-70000000D01*
X122525959Y-69996037D01*
X122526087Y-69995397D01*
X122525500Y-69989438D01*
X122525500Y-69399500D01*
X122542113Y-69337500D01*
X122587500Y-69292113D01*
X122649500Y-69275500D01*
X128350500Y-69275500D01*
X128412500Y-69292113D01*
G37*
G04 #@! TD.AperFunction*
G04 #@! TA.AperFunction,Conductor*
G36*
X99912500Y-69292113D02*
G01*
X99957887Y-69337500D01*
X99974500Y-69399500D01*
X99974500Y-69989438D01*
X99973912Y-69995397D01*
X99974039Y-69996039D01*
X99972399Y-70000000D01*
X99974500Y-70005072D01*
X99980483Y-70019517D01*
X99984443Y-70021157D01*
X99988465Y-70027176D01*
X100018704Y-70061203D01*
X100032124Y-70122366D01*
X100013948Y-70182289D01*
X99968810Y-70225689D01*
X99908220Y-70241500D01*
X99064295Y-70241500D01*
X99046323Y-70240191D01*
X99040056Y-70239273D01*
X99022211Y-70236659D01*
X99015019Y-70237288D01*
X99015013Y-70237288D01*
X98977121Y-70240603D01*
X98972272Y-70241028D01*
X98961467Y-70241500D01*
X98955820Y-70241500D01*
X98952261Y-70241915D01*
X98952243Y-70241917D01*
X98924678Y-70245139D01*
X98921094Y-70245505D01*
X98852762Y-70251483D01*
X98852753Y-70251484D01*
X98845573Y-70252113D01*
X98838728Y-70254380D01*
X98835043Y-70255142D01*
X98834874Y-70255169D01*
X98834681Y-70255224D01*
X98831056Y-70256082D01*
X98823887Y-70256921D01*
X98817107Y-70259388D01*
X98817101Y-70259390D01*
X98752604Y-70282864D01*
X98749202Y-70284046D01*
X98684117Y-70305614D01*
X98684114Y-70305615D01*
X98677262Y-70307886D01*
X98671119Y-70311674D01*
X98667721Y-70313259D01*
X98667548Y-70313330D01*
X98667402Y-70313412D01*
X98664044Y-70315098D01*
X98657268Y-70317565D01*
X98651244Y-70321526D01*
X98651234Y-70321532D01*
X98593900Y-70359241D01*
X98590860Y-70361178D01*
X98532495Y-70397178D01*
X98532488Y-70397183D01*
X98526349Y-70400970D01*
X98521248Y-70406070D01*
X98518304Y-70408398D01*
X98518157Y-70408504D01*
X98518035Y-70408616D01*
X98515152Y-70411034D01*
X98509126Y-70414999D01*
X98504176Y-70420245D01*
X98504173Y-70420248D01*
X98457053Y-70470191D01*
X98454541Y-70472776D01*
X96509123Y-72418194D01*
X96495495Y-72429972D01*
X96481735Y-72440216D01*
X96481724Y-72440225D01*
X96475942Y-72444531D01*
X96471307Y-72450053D01*
X96471298Y-72450063D01*
X96443715Y-72482935D01*
X96436419Y-72490898D01*
X96434975Y-72492341D01*
X96434953Y-72492365D01*
X96432420Y-72494899D01*
X96430194Y-72497713D01*
X96430186Y-72497723D01*
X96412982Y-72519480D01*
X96410710Y-72522268D01*
X96366608Y-72574828D01*
X96366601Y-72574837D01*
X96361968Y-72580360D01*
X96358732Y-72586801D01*
X96356664Y-72589946D01*
X96356568Y-72590078D01*
X96356481Y-72590235D01*
X96354508Y-72593432D01*
X96350033Y-72599094D01*
X96346982Y-72605635D01*
X96346981Y-72605638D01*
X96317982Y-72667825D01*
X96316427Y-72671037D01*
X96282391Y-72738812D01*
X96280727Y-72745828D01*
X96279446Y-72749350D01*
X96279376Y-72749518D01*
X96279328Y-72749689D01*
X96278147Y-72753252D01*
X96275097Y-72759794D01*
X96273638Y-72766857D01*
X96273636Y-72766865D01*
X96259759Y-72834072D01*
X96258979Y-72837592D01*
X96243823Y-72901544D01*
X96241500Y-72911344D01*
X96241500Y-72918557D01*
X96241067Y-72922261D01*
X96241036Y-72922453D01*
X96241028Y-72922638D01*
X96240701Y-72926370D01*
X96239241Y-72933442D01*
X96239450Y-72940649D01*
X96239450Y-72940658D01*
X96241448Y-73009293D01*
X96241500Y-73012899D01*
X96241500Y-115362500D01*
X96224887Y-115424500D01*
X96179500Y-115469887D01*
X96117500Y-115486500D01*
X94006613Y-115486500D01*
X93952153Y-115473900D01*
X93908760Y-115438662D01*
X93885252Y-115387947D01*
X93886407Y-115332060D01*
X93909616Y-115240408D01*
X93910876Y-115235434D01*
X93930385Y-115000000D01*
X93910876Y-114764566D01*
X93852883Y-114535555D01*
X93757986Y-114319212D01*
X93628775Y-114121439D01*
X93625297Y-114117661D01*
X93625294Y-114117657D01*
X93472247Y-113951405D01*
X93472242Y-113951400D01*
X93468773Y-113947632D01*
X93375559Y-113875080D01*
X93286395Y-113805681D01*
X93286391Y-113805678D01*
X93282346Y-113802530D01*
X93277841Y-113800092D01*
X93277838Y-113800090D01*
X93079083Y-113692529D01*
X93079078Y-113692527D01*
X93074579Y-113690092D01*
X93069733Y-113688428D01*
X93069730Y-113688427D01*
X92900107Y-113630195D01*
X92851139Y-113613384D01*
X92846089Y-113612541D01*
X92846080Y-113612539D01*
X92623182Y-113575344D01*
X92623173Y-113575343D01*
X92618120Y-113574500D01*
X92381880Y-113574500D01*
X92376827Y-113575343D01*
X92376817Y-113575344D01*
X92153919Y-113612539D01*
X92153907Y-113612541D01*
X92148861Y-113613384D01*
X92144008Y-113615049D01*
X92144008Y-113615050D01*
X91930269Y-113688427D01*
X91930262Y-113688430D01*
X91925421Y-113690092D01*
X91920925Y-113692524D01*
X91920916Y-113692529D01*
X91722161Y-113800090D01*
X91722152Y-113800095D01*
X91717654Y-113802530D01*
X91713613Y-113805674D01*
X91713604Y-113805681D01*
X91535275Y-113944481D01*
X91531227Y-113947632D01*
X91527762Y-113951394D01*
X91527752Y-113951405D01*
X91374705Y-114117657D01*
X91374696Y-114117668D01*
X91371225Y-114121439D01*
X91368419Y-114125733D01*
X91368415Y-114125739D01*
X91244818Y-114314918D01*
X91244811Y-114314930D01*
X91242014Y-114319212D01*
X91239959Y-114323896D01*
X91239953Y-114323908D01*
X91149177Y-114530858D01*
X91147117Y-114535555D01*
X91145859Y-114540520D01*
X91145858Y-114540525D01*
X91090383Y-114759590D01*
X91090380Y-114759602D01*
X91089124Y-114764566D01*
X91088700Y-114769675D01*
X91088699Y-114769685D01*
X91076961Y-114911344D01*
X91069615Y-115000000D01*
X91070039Y-115005117D01*
X91088699Y-115230314D01*
X91088700Y-115230322D01*
X91089124Y-115235434D01*
X91090381Y-115240399D01*
X91090383Y-115240409D01*
X91140588Y-115438662D01*
X91147117Y-115464445D01*
X91149177Y-115469141D01*
X91239953Y-115676091D01*
X91239956Y-115676097D01*
X91242014Y-115680788D01*
X91244814Y-115685074D01*
X91244818Y-115685081D01*
X91297758Y-115766111D01*
X91371225Y-115878561D01*
X91374701Y-115882337D01*
X91374705Y-115882342D01*
X91527748Y-116048589D01*
X91531227Y-116052368D01*
X91535277Y-116055520D01*
X91538187Y-116058199D01*
X91570179Y-116105547D01*
X91577542Y-116162214D01*
X91558712Y-116216165D01*
X91555076Y-116221858D01*
X91555071Y-116221866D01*
X91551274Y-116227813D01*
X91548915Y-116234459D01*
X91548912Y-116234466D01*
X91513490Y-116334279D01*
X91513487Y-116334288D01*
X91512312Y-116337600D01*
X91511518Y-116341031D01*
X91511518Y-116341032D01*
X91504862Y-116369805D01*
X91499713Y-116392060D01*
X91499315Y-116395543D01*
X91499313Y-116395557D01*
X91486899Y-116504297D01*
X91486898Y-116504308D01*
X91486500Y-116507798D01*
X91486500Y-116511324D01*
X91486500Y-117850500D01*
X91469887Y-117912500D01*
X91424500Y-117957887D01*
X91362500Y-117974500D01*
X90149500Y-117974500D01*
X90087500Y-117957887D01*
X90042113Y-117912500D01*
X90025500Y-117850500D01*
X90025500Y-73000000D01*
X91069615Y-73000000D01*
X91070039Y-73005117D01*
X91088699Y-73230314D01*
X91088700Y-73230322D01*
X91089124Y-73235434D01*
X91090381Y-73240399D01*
X91090383Y-73240409D01*
X91142522Y-73446299D01*
X91147117Y-73464445D01*
X91149177Y-73469141D01*
X91239953Y-73676091D01*
X91239956Y-73676097D01*
X91242014Y-73680788D01*
X91244814Y-73685074D01*
X91244818Y-73685081D01*
X91337198Y-73826479D01*
X91371225Y-73878561D01*
X91374701Y-73882337D01*
X91374705Y-73882342D01*
X91527752Y-74048594D01*
X91527756Y-74048598D01*
X91531227Y-74052368D01*
X91572599Y-74084569D01*
X91713258Y-74194049D01*
X91717654Y-74197470D01*
X91925421Y-74309908D01*
X92148861Y-74386616D01*
X92381880Y-74425500D01*
X92612987Y-74425500D01*
X92618120Y-74425500D01*
X92851139Y-74386616D01*
X93074579Y-74309908D01*
X93282346Y-74197470D01*
X93468773Y-74052368D01*
X93628775Y-73878561D01*
X93757986Y-73680788D01*
X93852883Y-73464445D01*
X93910876Y-73235434D01*
X93930385Y-73000000D01*
X93910876Y-72764566D01*
X93852883Y-72535555D01*
X93757986Y-72319212D01*
X93747382Y-72302982D01*
X93658363Y-72166727D01*
X93628775Y-72121439D01*
X93625297Y-72117661D01*
X93625294Y-72117657D01*
X93472247Y-71951405D01*
X93472242Y-71951400D01*
X93468773Y-71947632D01*
X93373725Y-71873653D01*
X93286395Y-71805681D01*
X93286391Y-71805678D01*
X93282346Y-71802530D01*
X93277841Y-71800092D01*
X93277838Y-71800090D01*
X93079083Y-71692529D01*
X93079078Y-71692527D01*
X93074579Y-71690092D01*
X93069733Y-71688428D01*
X93069730Y-71688427D01*
X92900107Y-71630195D01*
X92851139Y-71613384D01*
X92846089Y-71612541D01*
X92846080Y-71612539D01*
X92623182Y-71575344D01*
X92623173Y-71575343D01*
X92618120Y-71574500D01*
X92381880Y-71574500D01*
X92376827Y-71575343D01*
X92376817Y-71575344D01*
X92153919Y-71612539D01*
X92153907Y-71612541D01*
X92148861Y-71613384D01*
X92144008Y-71615049D01*
X92144008Y-71615050D01*
X91930269Y-71688427D01*
X91930262Y-71688430D01*
X91925421Y-71690092D01*
X91920925Y-71692524D01*
X91920916Y-71692529D01*
X91722161Y-71800090D01*
X91722152Y-71800095D01*
X91717654Y-71802530D01*
X91713613Y-71805674D01*
X91713604Y-71805681D01*
X91548727Y-71934011D01*
X91531227Y-71947632D01*
X91527762Y-71951394D01*
X91527752Y-71951405D01*
X91374705Y-72117657D01*
X91374696Y-72117668D01*
X91371225Y-72121439D01*
X91368419Y-72125733D01*
X91368415Y-72125739D01*
X91244818Y-72314918D01*
X91244811Y-72314930D01*
X91242014Y-72319212D01*
X91239959Y-72323896D01*
X91239953Y-72323908D01*
X91149177Y-72530858D01*
X91147117Y-72535555D01*
X91145859Y-72540520D01*
X91145858Y-72540525D01*
X91090383Y-72759590D01*
X91090380Y-72759602D01*
X91089124Y-72764566D01*
X91088700Y-72769675D01*
X91088699Y-72769685D01*
X91075130Y-72933442D01*
X91069615Y-73000000D01*
X90025500Y-73000000D01*
X90025500Y-70149500D01*
X90042113Y-70087500D01*
X90087500Y-70042113D01*
X90149500Y-70025500D01*
X93989437Y-70025500D01*
X93995398Y-70026087D01*
X93996037Y-70025959D01*
X94000000Y-70027601D01*
X94019517Y-70019517D01*
X94025500Y-70005072D01*
X94027601Y-70000000D01*
X94025959Y-69996037D01*
X94026087Y-69995397D01*
X94025500Y-69989438D01*
X94025500Y-69399500D01*
X94042113Y-69337500D01*
X94087500Y-69292113D01*
X94149500Y-69275500D01*
X99850500Y-69275500D01*
X99912500Y-69292113D01*
G37*
G04 #@! TD.AperFunction*
G04 #@! TA.AperFunction,Conductor*
G36*
X113912500Y-69292113D02*
G01*
X113957887Y-69337500D01*
X113974500Y-69399500D01*
X113974500Y-69989438D01*
X113973912Y-69995397D01*
X113974039Y-69996039D01*
X113972399Y-70000000D01*
X113974500Y-70005072D01*
X113977072Y-70011283D01*
X113977073Y-70011285D01*
X113980484Y-70019520D01*
X113979868Y-70019774D01*
X113997046Y-70071768D01*
X113982554Y-70136306D01*
X113936944Y-70184212D01*
X113873195Y-70201854D01*
X112243492Y-70201854D01*
X112232208Y-70201322D01*
X112224737Y-70199652D01*
X112216939Y-70199897D01*
X112156629Y-70201793D01*
X112152733Y-70201854D01*
X112124790Y-70201854D01*
X112120923Y-70202342D01*
X112120914Y-70202343D01*
X112120678Y-70202373D01*
X112109052Y-70203288D01*
X112072549Y-70204435D01*
X112072541Y-70204436D01*
X112064756Y-70204681D01*
X112057274Y-70206854D01*
X112057265Y-70206856D01*
X112045151Y-70210376D01*
X112026103Y-70214321D01*
X112013589Y-70215902D01*
X112013588Y-70215902D01*
X112005849Y-70216880D01*
X111998598Y-70219750D01*
X111998593Y-70219752D01*
X111964643Y-70233193D01*
X111953598Y-70236974D01*
X111918548Y-70247157D01*
X111918537Y-70247161D01*
X111911053Y-70249336D01*
X111904340Y-70253305D01*
X111904337Y-70253307D01*
X111893478Y-70259729D01*
X111876016Y-70268283D01*
X111864288Y-70272927D01*
X111864282Y-70272930D01*
X111857029Y-70275802D01*
X111850719Y-70280386D01*
X111850716Y-70280388D01*
X111821187Y-70301842D01*
X111811427Y-70308253D01*
X111779995Y-70326842D01*
X111779992Y-70326844D01*
X111773283Y-70330812D01*
X111767772Y-70336321D01*
X111767765Y-70336328D01*
X111758840Y-70345253D01*
X111744057Y-70357879D01*
X111733853Y-70365293D01*
X111733846Y-70365299D01*
X111727539Y-70369882D01*
X111722570Y-70375887D01*
X111722567Y-70375891D01*
X111699298Y-70404018D01*
X111691438Y-70412655D01*
X110676068Y-71428025D01*
X110620481Y-71460119D01*
X110556293Y-71460119D01*
X110500706Y-71428025D01*
X109581804Y-70509123D01*
X109570021Y-70495489D01*
X109559779Y-70481732D01*
X109555469Y-70475942D01*
X109549936Y-70471300D01*
X109549935Y-70471298D01*
X109517060Y-70443712D01*
X109509085Y-70436404D01*
X109507653Y-70434972D01*
X109507652Y-70434971D01*
X109505101Y-70432420D01*
X109502278Y-70430187D01*
X109502267Y-70430178D01*
X109480512Y-70412976D01*
X109477719Y-70410701D01*
X109425172Y-70366610D01*
X109419640Y-70361968D01*
X109413186Y-70358726D01*
X109410061Y-70356671D01*
X109409914Y-70356564D01*
X109409744Y-70356470D01*
X109406573Y-70354514D01*
X109400906Y-70350033D01*
X109394361Y-70346980D01*
X109394353Y-70346976D01*
X109332160Y-70317974D01*
X109328917Y-70316404D01*
X109267645Y-70285633D01*
X109267639Y-70285631D01*
X109261188Y-70282391D01*
X109254161Y-70280725D01*
X109250662Y-70279452D01*
X109250476Y-70279375D01*
X109250307Y-70279327D01*
X109246748Y-70278147D01*
X109240206Y-70275097D01*
X109165921Y-70259758D01*
X109162406Y-70258979D01*
X109095676Y-70243163D01*
X109095669Y-70243162D01*
X109088656Y-70241500D01*
X109081444Y-70241500D01*
X109077739Y-70241067D01*
X109067213Y-70239376D01*
X109067021Y-70239336D01*
X109066711Y-70239272D01*
X109067238Y-70236703D01*
X109023311Y-70221438D01*
X108982361Y-70176896D01*
X108967363Y-70118280D01*
X108981887Y-70059545D01*
X109012573Y-70025621D01*
X109015554Y-70021158D01*
X109019517Y-70019517D01*
X109025500Y-70005072D01*
X109027601Y-70000000D01*
X109025959Y-69996037D01*
X109026087Y-69995397D01*
X109025500Y-69989438D01*
X109025500Y-69399500D01*
X109042113Y-69337500D01*
X109087500Y-69292113D01*
X109149500Y-69275500D01*
X113850500Y-69275500D01*
X113912500Y-69292113D01*
G37*
G04 #@! TD.AperFunction*
M02*
