M48
; DRILL file {KiCad (7.0.0-0)} date Saturday, 30 March 2024 at 14:09:12
; FORMAT={-:-/ absolute / metric / decimal}
; #@! TF.CreationDate,2024-03-30T14:09:12+02:00
; #@! TF.GenerationSoftware,Kicad,Pcbnew,(7.0.0-0)
; #@! TF.FileFunction,Plated,1,2,PTH
FMAT,2
METRIC
; #@! TA.AperFunction,Plated,PTH,ViaDrill
T1C0.400
%
G90
G05
T1
X92.0Y-77.0
X92.0Y-111.0
X95.0Y-70.0
X95.0Y-77.0
X95.0Y-111.0
X98.0Y-117.0
X99.0Y-70.0
X99.0Y-117.0
X100.0Y-117.0
X101.0Y-117.0
X109.0Y-77.0
X110.0Y-70.0
X110.0Y-118.0
X111.0Y-118.0
X112.0Y-118.0
X113.0Y-70.0
X113.0Y-118.0
X114.0Y-77.0
X125.0Y-118.0
X126.0Y-71.0
X126.0Y-118.0
X127.0Y-80.0
X127.0Y-111.0
X127.0Y-118.0
X128.0Y-71.0
X130.0Y-80.0
X130.0Y-111.0
T0
M30
