G04 #@! TF.GenerationSoftware,KiCad,Pcbnew,(7.0.0-0)*
G04 #@! TF.CreationDate,2024-03-30T14:09:05+02:00*
G04 #@! TF.ProjectId,radio-battery-replacement,72616469-6f2d-4626-9174-746572792d72,rev?*
G04 #@! TF.SameCoordinates,Original*
G04 #@! TF.FileFunction,Profile,NP*
%FSLAX46Y46*%
G04 Gerber Fmt 4.6, Leading zero omitted, Abs format (unit mm)*
G04 Created by KiCad (PCBNEW (7.0.0-0)) date 2024-03-30 14:09:05*
%MOMM*%
%LPD*%
G01*
G04 APERTURE LIST*
G04 #@! TA.AperFunction,Profile*
%ADD10C,0.050000*%
G04 #@! TD*
G04 APERTURE END LIST*
D10*
X90000000Y-70000000D02*
X90000000Y-118000000D01*
X94500000Y-118750000D02*
X99500000Y-118750000D01*
X114500000Y-118000000D02*
X123500000Y-118000000D01*
X123500000Y-118750000D02*
X128500000Y-118750000D01*
X123500000Y-118000000D02*
X123500000Y-118750000D01*
X94500000Y-118000000D02*
X94500000Y-118750000D01*
X128500000Y-118750000D02*
X128500000Y-118000000D01*
X94500000Y-118000000D02*
X90000000Y-118000000D01*
X99500000Y-118750000D02*
X99500000Y-118000000D01*
X99500000Y-118000000D02*
X108500000Y-118000000D01*
X128500000Y-118000000D02*
X133000000Y-118000000D01*
X133000000Y-118000000D02*
X133000000Y-70000000D01*
X122500000Y-70000000D02*
X114000000Y-70000000D01*
X114000000Y-69250000D02*
X109000000Y-69250000D01*
X122500000Y-69250000D02*
X122500000Y-70000000D01*
X128500000Y-70000000D02*
X133000000Y-70000000D01*
X114000000Y-70000000D02*
X114000000Y-69250000D01*
X109000000Y-69250000D02*
X109000000Y-70000000D01*
X94000000Y-69250000D02*
X94000000Y-70000000D01*
X128500000Y-70000000D02*
X128500000Y-69250000D01*
X100000000Y-70000000D02*
X100000000Y-69250000D01*
X94000000Y-70000000D02*
X90000000Y-70000000D01*
X100000000Y-69250000D02*
X94000000Y-69250000D01*
X109000000Y-70000000D02*
X100000000Y-70000000D01*
X128500000Y-69250000D02*
X122500000Y-69250000D01*
X114500000Y-118750000D02*
X114500000Y-118000000D01*
X108500000Y-118000000D02*
X108500000Y-118750000D01*
X108500000Y-118750000D02*
X114500000Y-118750000D01*
X93900000Y-115000000D02*
G75*
G03*
X93900000Y-115000000I-1400000J0D01*
G01*
X131900000Y-115000000D02*
G75*
G03*
X131900000Y-115000000I-1400000J0D01*
G01*
X93900000Y-73000000D02*
G75*
G03*
X93900000Y-73000000I-1400000J0D01*
G01*
X100000000Y-79100000D02*
X123000000Y-79100000D01*
X123000000Y-79100000D02*
X123000000Y-112000000D01*
X123000000Y-112000000D02*
X100000000Y-112000000D01*
X100000000Y-112000000D02*
X100000000Y-79100000D01*
X131900000Y-73000000D02*
G75*
G03*
X131900000Y-73000000I-1400000J0D01*
G01*
M02*
