%TF.GenerationSoftware,KiCad,Pcbnew,(7.0.0-0)*%
%TF.CreationDate,2024-03-30T14:09:14+02:00*%
%TF.ProjectId,radio-battery-replacement,72616469-6f2d-4626-9174-746572792d72,rev?*%
%TF.SameCoordinates,Original*%
%TF.FileFunction,Drillmap*%
%TF.FilePolarity,Positive*%
%FSLAX45Y45*%
G04 Gerber Fmt 4.5, Leading zero omitted, Abs format (unit mm)*
G04 Created by KiCad (PCBNEW (7.0.0-0)) date 2024-03-30 14:09:14*
%MOMM*%
%LPD*%
G01*
G04 APERTURE LIST*
%ADD10C,0.050000*%
%ADD11C,0.200000*%
%ADD12C,0.040000*%
G04 APERTURE END LIST*
D10*
X9000000Y-7000000D02*
X9000000Y-11800000D01*
X9450000Y-11875000D02*
X9950000Y-11875000D01*
X11450000Y-11800000D02*
X12350000Y-11800000D01*
X12350000Y-11875000D02*
X12850000Y-11875000D01*
X12350000Y-11800000D02*
X12350000Y-11875000D01*
X9450000Y-11800000D02*
X9450000Y-11875000D01*
X12850000Y-11875000D02*
X12850000Y-11800000D01*
X9450000Y-11800000D02*
X9000000Y-11800000D01*
X9950000Y-11875000D02*
X9950000Y-11800000D01*
X9950000Y-11800000D02*
X10850000Y-11800000D01*
X12850000Y-11800000D02*
X13300000Y-11800000D01*
X13300000Y-11800000D02*
X13300000Y-7000000D01*
X12250000Y-7000000D02*
X11400000Y-7000000D01*
X11400000Y-6925000D02*
X10900000Y-6925000D01*
X12250000Y-6925000D02*
X12250000Y-7000000D01*
X12850000Y-7000000D02*
X13300000Y-7000000D01*
X11400000Y-7000000D02*
X11400000Y-6925000D01*
X10900000Y-6925000D02*
X10900000Y-7000000D01*
X9400000Y-6925000D02*
X9400000Y-7000000D01*
X12850000Y-7000000D02*
X12850000Y-6925000D01*
X10000000Y-7000000D02*
X10000000Y-6925000D01*
X9400000Y-7000000D02*
X9000000Y-7000000D01*
X10000000Y-6925000D02*
X9400000Y-6925000D01*
X10900000Y-7000000D02*
X10000000Y-7000000D01*
X12850000Y-6925000D02*
X12250000Y-6925000D01*
X11450000Y-11875000D02*
X11450000Y-11800000D01*
X10850000Y-11800000D02*
X10850000Y-11875000D01*
X10850000Y-11875000D02*
X11450000Y-11875000D01*
X9390000Y-11500000D02*
G75*
G03*
X9390000Y-11500000I-140000J0D01*
G01*
X13190000Y-11500000D02*
G75*
G03*
X13190000Y-11500000I-140000J0D01*
G01*
X9390000Y-7300000D02*
G75*
G03*
X9390000Y-7300000I-140000J0D01*
G01*
X10000000Y-7910000D02*
X12300000Y-7910000D01*
X12300000Y-7910000D02*
X12300000Y-11200000D01*
X12300000Y-11200000D02*
X10000000Y-11200000D01*
X10000000Y-11200000D02*
X10000000Y-7910000D01*
X13190000Y-7300000D02*
G75*
G03*
X13190000Y-7300000I-140000J0D01*
G01*
D11*
D12*
X9180000Y-7680000D02*
X9220000Y-7720000D01*
X9220000Y-7680000D02*
X9180000Y-7720000D01*
X9180000Y-11080000D02*
X9220000Y-11120000D01*
X9220000Y-11080000D02*
X9180000Y-11120000D01*
X9480000Y-6980000D02*
X9520000Y-7020000D01*
X9520000Y-6980000D02*
X9480000Y-7020000D01*
X9480000Y-7680000D02*
X9520000Y-7720000D01*
X9520000Y-7680000D02*
X9480000Y-7720000D01*
X9480000Y-11080000D02*
X9520000Y-11120000D01*
X9520000Y-11080000D02*
X9480000Y-11120000D01*
X9780000Y-11680000D02*
X9820000Y-11720000D01*
X9820000Y-11680000D02*
X9780000Y-11720000D01*
X9880000Y-6980000D02*
X9920000Y-7020000D01*
X9920000Y-6980000D02*
X9880000Y-7020000D01*
X9880000Y-11680000D02*
X9920000Y-11720000D01*
X9920000Y-11680000D02*
X9880000Y-11720000D01*
X9980000Y-11680000D02*
X10020000Y-11720000D01*
X10020000Y-11680000D02*
X9980000Y-11720000D01*
X10080000Y-11680000D02*
X10120000Y-11720000D01*
X10120000Y-11680000D02*
X10080000Y-11720000D01*
X10880000Y-7680000D02*
X10920000Y-7720000D01*
X10920000Y-7680000D02*
X10880000Y-7720000D01*
X10980000Y-6980000D02*
X11020000Y-7020000D01*
X11020000Y-6980000D02*
X10980000Y-7020000D01*
X10980000Y-11780000D02*
X11020000Y-11820000D01*
X11020000Y-11780000D02*
X10980000Y-11820000D01*
X11080000Y-11780000D02*
X11120000Y-11820000D01*
X11120000Y-11780000D02*
X11080000Y-11820000D01*
X11180000Y-11780000D02*
X11220000Y-11820000D01*
X11220000Y-11780000D02*
X11180000Y-11820000D01*
X11280000Y-6980000D02*
X11320000Y-7020000D01*
X11320000Y-6980000D02*
X11280000Y-7020000D01*
X11280000Y-11780000D02*
X11320000Y-11820000D01*
X11320000Y-11780000D02*
X11280000Y-11820000D01*
X11380000Y-7680000D02*
X11420000Y-7720000D01*
X11420000Y-7680000D02*
X11380000Y-7720000D01*
X12480000Y-11780000D02*
X12520000Y-11820000D01*
X12520000Y-11780000D02*
X12480000Y-11820000D01*
X12580000Y-7080000D02*
X12620000Y-7120000D01*
X12620000Y-7080000D02*
X12580000Y-7120000D01*
X12580000Y-11780000D02*
X12620000Y-11820000D01*
X12620000Y-11780000D02*
X12580000Y-11820000D01*
X12680000Y-7980000D02*
X12720000Y-8020000D01*
X12720000Y-7980000D02*
X12680000Y-8020000D01*
X12680000Y-11080000D02*
X12720000Y-11120000D01*
X12720000Y-11080000D02*
X12680000Y-11120000D01*
X12680000Y-11780000D02*
X12720000Y-11820000D01*
X12720000Y-11780000D02*
X12680000Y-11820000D01*
X12780000Y-7080000D02*
X12820000Y-7120000D01*
X12820000Y-7080000D02*
X12780000Y-7120000D01*
X12980000Y-7980000D02*
X13020000Y-8020000D01*
X13020000Y-7980000D02*
X12980000Y-8020000D01*
X12980000Y-11080000D02*
X13020000Y-11120000D01*
X13020000Y-11080000D02*
X12980000Y-11120000D01*
D11*
X9245119Y-12170976D02*
X9245119Y-11970976D01*
X9245119Y-11970976D02*
X9292738Y-11970976D01*
X9292738Y-11970976D02*
X9321310Y-11980500D01*
X9321310Y-11980500D02*
X9340357Y-11999548D01*
X9340357Y-11999548D02*
X9349881Y-12018595D01*
X9349881Y-12018595D02*
X9359405Y-12056690D01*
X9359405Y-12056690D02*
X9359405Y-12085262D01*
X9359405Y-12085262D02*
X9349881Y-12123357D01*
X9349881Y-12123357D02*
X9340357Y-12142405D01*
X9340357Y-12142405D02*
X9321310Y-12161452D01*
X9321310Y-12161452D02*
X9292738Y-12170976D01*
X9292738Y-12170976D02*
X9245119Y-12170976D01*
X9445119Y-12170976D02*
X9445119Y-12037643D01*
X9445119Y-12075738D02*
X9454643Y-12056690D01*
X9454643Y-12056690D02*
X9464167Y-12047167D01*
X9464167Y-12047167D02*
X9483214Y-12037643D01*
X9483214Y-12037643D02*
X9502262Y-12037643D01*
X9568929Y-12170976D02*
X9568929Y-12037643D01*
X9568929Y-11970976D02*
X9559405Y-11980500D01*
X9559405Y-11980500D02*
X9568929Y-11990024D01*
X9568929Y-11990024D02*
X9578452Y-11980500D01*
X9578452Y-11980500D02*
X9568929Y-11970976D01*
X9568929Y-11970976D02*
X9568929Y-11990024D01*
X9692738Y-12170976D02*
X9673690Y-12161452D01*
X9673690Y-12161452D02*
X9664167Y-12142405D01*
X9664167Y-12142405D02*
X9664167Y-11970976D01*
X9797500Y-12170976D02*
X9778452Y-12161452D01*
X9778452Y-12161452D02*
X9768929Y-12142405D01*
X9768929Y-12142405D02*
X9768929Y-11970976D01*
X9993690Y-12170976D02*
X9993690Y-11970976D01*
X9993690Y-11970976D02*
X10060357Y-12113833D01*
X10060357Y-12113833D02*
X10127024Y-11970976D01*
X10127024Y-11970976D02*
X10127024Y-12170976D01*
X10307976Y-12170976D02*
X10307976Y-12066214D01*
X10307976Y-12066214D02*
X10298452Y-12047167D01*
X10298452Y-12047167D02*
X10279405Y-12037643D01*
X10279405Y-12037643D02*
X10241309Y-12037643D01*
X10241309Y-12037643D02*
X10222262Y-12047167D01*
X10307976Y-12161452D02*
X10288929Y-12170976D01*
X10288929Y-12170976D02*
X10241309Y-12170976D01*
X10241309Y-12170976D02*
X10222262Y-12161452D01*
X10222262Y-12161452D02*
X10212738Y-12142405D01*
X10212738Y-12142405D02*
X10212738Y-12123357D01*
X10212738Y-12123357D02*
X10222262Y-12104309D01*
X10222262Y-12104309D02*
X10241309Y-12094786D01*
X10241309Y-12094786D02*
X10288929Y-12094786D01*
X10288929Y-12094786D02*
X10307976Y-12085262D01*
X10403214Y-12037643D02*
X10403214Y-12237643D01*
X10403214Y-12047167D02*
X10422262Y-12037643D01*
X10422262Y-12037643D02*
X10460357Y-12037643D01*
X10460357Y-12037643D02*
X10479405Y-12047167D01*
X10479405Y-12047167D02*
X10488929Y-12056690D01*
X10488929Y-12056690D02*
X10498452Y-12075738D01*
X10498452Y-12075738D02*
X10498452Y-12132881D01*
X10498452Y-12132881D02*
X10488929Y-12151928D01*
X10488929Y-12151928D02*
X10479405Y-12161452D01*
X10479405Y-12161452D02*
X10460357Y-12170976D01*
X10460357Y-12170976D02*
X10422262Y-12170976D01*
X10422262Y-12170976D02*
X10403214Y-12161452D01*
X10584167Y-12151928D02*
X10593690Y-12161452D01*
X10593690Y-12161452D02*
X10584167Y-12170976D01*
X10584167Y-12170976D02*
X10574643Y-12161452D01*
X10574643Y-12161452D02*
X10584167Y-12151928D01*
X10584167Y-12151928D02*
X10584167Y-12170976D01*
X10584167Y-12047167D02*
X10593690Y-12056690D01*
X10593690Y-12056690D02*
X10584167Y-12066214D01*
X10584167Y-12066214D02*
X10574643Y-12056690D01*
X10574643Y-12056690D02*
X10584167Y-12047167D01*
X10584167Y-12047167D02*
X10584167Y-12066214D01*
D12*
X8957500Y-12497500D02*
X8997500Y-12537500D01*
X8997500Y-12497500D02*
X8957500Y-12537500D01*
D11*
X9283214Y-12390976D02*
X9302262Y-12390976D01*
X9302262Y-12390976D02*
X9321310Y-12400500D01*
X9321310Y-12400500D02*
X9330833Y-12410024D01*
X9330833Y-12410024D02*
X9340357Y-12429071D01*
X9340357Y-12429071D02*
X9349881Y-12467167D01*
X9349881Y-12467167D02*
X9349881Y-12514786D01*
X9349881Y-12514786D02*
X9340357Y-12552881D01*
X9340357Y-12552881D02*
X9330833Y-12571928D01*
X9330833Y-12571928D02*
X9321310Y-12581452D01*
X9321310Y-12581452D02*
X9302262Y-12590976D01*
X9302262Y-12590976D02*
X9283214Y-12590976D01*
X9283214Y-12590976D02*
X9264167Y-12581452D01*
X9264167Y-12581452D02*
X9254643Y-12571928D01*
X9254643Y-12571928D02*
X9245119Y-12552881D01*
X9245119Y-12552881D02*
X9235595Y-12514786D01*
X9235595Y-12514786D02*
X9235595Y-12467167D01*
X9235595Y-12467167D02*
X9245119Y-12429071D01*
X9245119Y-12429071D02*
X9254643Y-12410024D01*
X9254643Y-12410024D02*
X9264167Y-12400500D01*
X9264167Y-12400500D02*
X9283214Y-12390976D01*
X9435595Y-12571928D02*
X9445119Y-12581452D01*
X9445119Y-12581452D02*
X9435595Y-12590976D01*
X9435595Y-12590976D02*
X9426071Y-12581452D01*
X9426071Y-12581452D02*
X9435595Y-12571928D01*
X9435595Y-12571928D02*
X9435595Y-12590976D01*
X9616548Y-12457643D02*
X9616548Y-12590976D01*
X9568929Y-12381452D02*
X9521310Y-12524309D01*
X9521310Y-12524309D02*
X9645119Y-12524309D01*
X9759405Y-12390976D02*
X9778452Y-12390976D01*
X9778452Y-12390976D02*
X9797500Y-12400500D01*
X9797500Y-12400500D02*
X9807024Y-12410024D01*
X9807024Y-12410024D02*
X9816548Y-12429071D01*
X9816548Y-12429071D02*
X9826071Y-12467167D01*
X9826071Y-12467167D02*
X9826071Y-12514786D01*
X9826071Y-12514786D02*
X9816548Y-12552881D01*
X9816548Y-12552881D02*
X9807024Y-12571928D01*
X9807024Y-12571928D02*
X9797500Y-12581452D01*
X9797500Y-12581452D02*
X9778452Y-12590976D01*
X9778452Y-12590976D02*
X9759405Y-12590976D01*
X9759405Y-12590976D02*
X9740357Y-12581452D01*
X9740357Y-12581452D02*
X9730833Y-12571928D01*
X9730833Y-12571928D02*
X9721310Y-12552881D01*
X9721310Y-12552881D02*
X9711786Y-12514786D01*
X9711786Y-12514786D02*
X9711786Y-12467167D01*
X9711786Y-12467167D02*
X9721310Y-12429071D01*
X9721310Y-12429071D02*
X9730833Y-12410024D01*
X9730833Y-12410024D02*
X9740357Y-12400500D01*
X9740357Y-12400500D02*
X9759405Y-12390976D01*
X9949881Y-12390976D02*
X9968929Y-12390976D01*
X9968929Y-12390976D02*
X9987976Y-12400500D01*
X9987976Y-12400500D02*
X9997500Y-12410024D01*
X9997500Y-12410024D02*
X10007024Y-12429071D01*
X10007024Y-12429071D02*
X10016548Y-12467167D01*
X10016548Y-12467167D02*
X10016548Y-12514786D01*
X10016548Y-12514786D02*
X10007024Y-12552881D01*
X10007024Y-12552881D02*
X9997500Y-12571928D01*
X9997500Y-12571928D02*
X9987976Y-12581452D01*
X9987976Y-12581452D02*
X9968929Y-12590976D01*
X9968929Y-12590976D02*
X9949881Y-12590976D01*
X9949881Y-12590976D02*
X9930833Y-12581452D01*
X9930833Y-12581452D02*
X9921310Y-12571928D01*
X9921310Y-12571928D02*
X9911786Y-12552881D01*
X9911786Y-12552881D02*
X9902262Y-12514786D01*
X9902262Y-12514786D02*
X9902262Y-12467167D01*
X9902262Y-12467167D02*
X9911786Y-12429071D01*
X9911786Y-12429071D02*
X9921310Y-12410024D01*
X9921310Y-12410024D02*
X9930833Y-12400500D01*
X9930833Y-12400500D02*
X9949881Y-12390976D01*
X10102262Y-12590976D02*
X10102262Y-12457643D01*
X10102262Y-12476690D02*
X10111786Y-12467167D01*
X10111786Y-12467167D02*
X10130833Y-12457643D01*
X10130833Y-12457643D02*
X10159405Y-12457643D01*
X10159405Y-12457643D02*
X10178452Y-12467167D01*
X10178452Y-12467167D02*
X10187976Y-12486214D01*
X10187976Y-12486214D02*
X10187976Y-12590976D01*
X10187976Y-12486214D02*
X10197500Y-12467167D01*
X10197500Y-12467167D02*
X10216548Y-12457643D01*
X10216548Y-12457643D02*
X10245119Y-12457643D01*
X10245119Y-12457643D02*
X10264167Y-12467167D01*
X10264167Y-12467167D02*
X10273691Y-12486214D01*
X10273691Y-12486214D02*
X10273691Y-12590976D01*
X10368929Y-12590976D02*
X10368929Y-12457643D01*
X10368929Y-12476690D02*
X10378452Y-12467167D01*
X10378452Y-12467167D02*
X10397500Y-12457643D01*
X10397500Y-12457643D02*
X10426072Y-12457643D01*
X10426072Y-12457643D02*
X10445119Y-12467167D01*
X10445119Y-12467167D02*
X10454643Y-12486214D01*
X10454643Y-12486214D02*
X10454643Y-12590976D01*
X10454643Y-12486214D02*
X10464167Y-12467167D01*
X10464167Y-12467167D02*
X10483214Y-12457643D01*
X10483214Y-12457643D02*
X10511786Y-12457643D01*
X10511786Y-12457643D02*
X10530833Y-12467167D01*
X10530833Y-12467167D02*
X10540357Y-12486214D01*
X10540357Y-12486214D02*
X10540357Y-12590976D01*
X10898452Y-12381452D02*
X10727024Y-12638595D01*
X11123214Y-12390976D02*
X11142262Y-12390976D01*
X11142262Y-12390976D02*
X11161310Y-12400500D01*
X11161310Y-12400500D02*
X11170833Y-12410024D01*
X11170833Y-12410024D02*
X11180357Y-12429071D01*
X11180357Y-12429071D02*
X11189881Y-12467167D01*
X11189881Y-12467167D02*
X11189881Y-12514786D01*
X11189881Y-12514786D02*
X11180357Y-12552881D01*
X11180357Y-12552881D02*
X11170833Y-12571928D01*
X11170833Y-12571928D02*
X11161310Y-12581452D01*
X11161310Y-12581452D02*
X11142262Y-12590976D01*
X11142262Y-12590976D02*
X11123214Y-12590976D01*
X11123214Y-12590976D02*
X11104167Y-12581452D01*
X11104167Y-12581452D02*
X11094643Y-12571928D01*
X11094643Y-12571928D02*
X11085119Y-12552881D01*
X11085119Y-12552881D02*
X11075595Y-12514786D01*
X11075595Y-12514786D02*
X11075595Y-12467167D01*
X11075595Y-12467167D02*
X11085119Y-12429071D01*
X11085119Y-12429071D02*
X11094643Y-12410024D01*
X11094643Y-12410024D02*
X11104167Y-12400500D01*
X11104167Y-12400500D02*
X11123214Y-12390976D01*
X11275595Y-12571928D02*
X11285119Y-12581452D01*
X11285119Y-12581452D02*
X11275595Y-12590976D01*
X11275595Y-12590976D02*
X11266071Y-12581452D01*
X11266071Y-12581452D02*
X11275595Y-12571928D01*
X11275595Y-12571928D02*
X11275595Y-12590976D01*
X11408929Y-12390976D02*
X11427976Y-12390976D01*
X11427976Y-12390976D02*
X11447024Y-12400500D01*
X11447024Y-12400500D02*
X11456548Y-12410024D01*
X11456548Y-12410024D02*
X11466071Y-12429071D01*
X11466071Y-12429071D02*
X11475595Y-12467167D01*
X11475595Y-12467167D02*
X11475595Y-12514786D01*
X11475595Y-12514786D02*
X11466071Y-12552881D01*
X11466071Y-12552881D02*
X11456548Y-12571928D01*
X11456548Y-12571928D02*
X11447024Y-12581452D01*
X11447024Y-12581452D02*
X11427976Y-12590976D01*
X11427976Y-12590976D02*
X11408929Y-12590976D01*
X11408929Y-12590976D02*
X11389881Y-12581452D01*
X11389881Y-12581452D02*
X11380357Y-12571928D01*
X11380357Y-12571928D02*
X11370833Y-12552881D01*
X11370833Y-12552881D02*
X11361310Y-12514786D01*
X11361310Y-12514786D02*
X11361310Y-12467167D01*
X11361310Y-12467167D02*
X11370833Y-12429071D01*
X11370833Y-12429071D02*
X11380357Y-12410024D01*
X11380357Y-12410024D02*
X11389881Y-12400500D01*
X11389881Y-12400500D02*
X11408929Y-12390976D01*
X11666071Y-12590976D02*
X11551786Y-12590976D01*
X11608929Y-12590976D02*
X11608929Y-12390976D01*
X11608929Y-12390976D02*
X11589881Y-12419548D01*
X11589881Y-12419548D02*
X11570833Y-12438595D01*
X11570833Y-12438595D02*
X11551786Y-12448119D01*
X11847024Y-12390976D02*
X11751786Y-12390976D01*
X11751786Y-12390976D02*
X11742262Y-12486214D01*
X11742262Y-12486214D02*
X11751786Y-12476690D01*
X11751786Y-12476690D02*
X11770833Y-12467167D01*
X11770833Y-12467167D02*
X11818452Y-12467167D01*
X11818452Y-12467167D02*
X11837500Y-12476690D01*
X11837500Y-12476690D02*
X11847024Y-12486214D01*
X11847024Y-12486214D02*
X11856548Y-12505262D01*
X11856548Y-12505262D02*
X11856548Y-12552881D01*
X11856548Y-12552881D02*
X11847024Y-12571928D01*
X11847024Y-12571928D02*
X11837500Y-12581452D01*
X11837500Y-12581452D02*
X11818452Y-12590976D01*
X11818452Y-12590976D02*
X11770833Y-12590976D01*
X11770833Y-12590976D02*
X11751786Y-12581452D01*
X11751786Y-12581452D02*
X11742262Y-12571928D01*
X11923214Y-12390976D02*
X12056548Y-12390976D01*
X12056548Y-12390976D02*
X11970833Y-12590976D01*
X12123214Y-12390976D02*
X12123214Y-12429071D01*
X12199405Y-12390976D02*
X12199405Y-12429071D01*
X12462262Y-12667167D02*
X12452738Y-12657643D01*
X12452738Y-12657643D02*
X12433691Y-12629071D01*
X12433691Y-12629071D02*
X12424167Y-12610024D01*
X12424167Y-12610024D02*
X12414643Y-12581452D01*
X12414643Y-12581452D02*
X12405119Y-12533833D01*
X12405119Y-12533833D02*
X12405119Y-12495738D01*
X12405119Y-12495738D02*
X12414643Y-12448119D01*
X12414643Y-12448119D02*
X12424167Y-12419548D01*
X12424167Y-12419548D02*
X12433691Y-12400500D01*
X12433691Y-12400500D02*
X12452738Y-12371928D01*
X12452738Y-12371928D02*
X12462262Y-12362405D01*
X12528929Y-12410024D02*
X12538452Y-12400500D01*
X12538452Y-12400500D02*
X12557500Y-12390976D01*
X12557500Y-12390976D02*
X12605119Y-12390976D01*
X12605119Y-12390976D02*
X12624167Y-12400500D01*
X12624167Y-12400500D02*
X12633691Y-12410024D01*
X12633691Y-12410024D02*
X12643214Y-12429071D01*
X12643214Y-12429071D02*
X12643214Y-12448119D01*
X12643214Y-12448119D02*
X12633691Y-12476690D01*
X12633691Y-12476690D02*
X12519405Y-12590976D01*
X12519405Y-12590976D02*
X12643214Y-12590976D01*
X12709881Y-12390976D02*
X12843214Y-12390976D01*
X12843214Y-12390976D02*
X12757500Y-12590976D01*
X13039405Y-12590976D02*
X13039405Y-12390976D01*
X13125119Y-12590976D02*
X13125119Y-12486214D01*
X13125119Y-12486214D02*
X13115595Y-12467167D01*
X13115595Y-12467167D02*
X13096548Y-12457643D01*
X13096548Y-12457643D02*
X13067976Y-12457643D01*
X13067976Y-12457643D02*
X13048929Y-12467167D01*
X13048929Y-12467167D02*
X13039405Y-12476690D01*
X13248929Y-12590976D02*
X13229881Y-12581452D01*
X13229881Y-12581452D02*
X13220357Y-12571928D01*
X13220357Y-12571928D02*
X13210833Y-12552881D01*
X13210833Y-12552881D02*
X13210833Y-12495738D01*
X13210833Y-12495738D02*
X13220357Y-12476690D01*
X13220357Y-12476690D02*
X13229881Y-12467167D01*
X13229881Y-12467167D02*
X13248929Y-12457643D01*
X13248929Y-12457643D02*
X13277500Y-12457643D01*
X13277500Y-12457643D02*
X13296548Y-12467167D01*
X13296548Y-12467167D02*
X13306072Y-12476690D01*
X13306072Y-12476690D02*
X13315595Y-12495738D01*
X13315595Y-12495738D02*
X13315595Y-12552881D01*
X13315595Y-12552881D02*
X13306072Y-12571928D01*
X13306072Y-12571928D02*
X13296548Y-12581452D01*
X13296548Y-12581452D02*
X13277500Y-12590976D01*
X13277500Y-12590976D02*
X13248929Y-12590976D01*
X13429881Y-12590976D02*
X13410833Y-12581452D01*
X13410833Y-12581452D02*
X13401310Y-12562405D01*
X13401310Y-12562405D02*
X13401310Y-12390976D01*
X13582262Y-12581452D02*
X13563214Y-12590976D01*
X13563214Y-12590976D02*
X13525119Y-12590976D01*
X13525119Y-12590976D02*
X13506072Y-12581452D01*
X13506072Y-12581452D02*
X13496548Y-12562405D01*
X13496548Y-12562405D02*
X13496548Y-12486214D01*
X13496548Y-12486214D02*
X13506072Y-12467167D01*
X13506072Y-12467167D02*
X13525119Y-12457643D01*
X13525119Y-12457643D02*
X13563214Y-12457643D01*
X13563214Y-12457643D02*
X13582262Y-12467167D01*
X13582262Y-12467167D02*
X13591786Y-12486214D01*
X13591786Y-12486214D02*
X13591786Y-12505262D01*
X13591786Y-12505262D02*
X13496548Y-12524309D01*
X13667976Y-12581452D02*
X13687024Y-12590976D01*
X13687024Y-12590976D02*
X13725119Y-12590976D01*
X13725119Y-12590976D02*
X13744167Y-12581452D01*
X13744167Y-12581452D02*
X13753691Y-12562405D01*
X13753691Y-12562405D02*
X13753691Y-12552881D01*
X13753691Y-12552881D02*
X13744167Y-12533833D01*
X13744167Y-12533833D02*
X13725119Y-12524309D01*
X13725119Y-12524309D02*
X13696548Y-12524309D01*
X13696548Y-12524309D02*
X13677500Y-12514786D01*
X13677500Y-12514786D02*
X13667976Y-12495738D01*
X13667976Y-12495738D02*
X13667976Y-12486214D01*
X13667976Y-12486214D02*
X13677500Y-12467167D01*
X13677500Y-12467167D02*
X13696548Y-12457643D01*
X13696548Y-12457643D02*
X13725119Y-12457643D01*
X13725119Y-12457643D02*
X13744167Y-12467167D01*
X13820357Y-12667167D02*
X13829881Y-12657643D01*
X13829881Y-12657643D02*
X13848929Y-12629071D01*
X13848929Y-12629071D02*
X13858453Y-12610024D01*
X13858453Y-12610024D02*
X13867976Y-12581452D01*
X13867976Y-12581452D02*
X13877500Y-12533833D01*
X13877500Y-12533833D02*
X13877500Y-12495738D01*
X13877500Y-12495738D02*
X13867976Y-12448119D01*
X13867976Y-12448119D02*
X13858453Y-12419548D01*
X13858453Y-12419548D02*
X13848929Y-12400500D01*
X13848929Y-12400500D02*
X13829881Y-12371928D01*
X13829881Y-12371928D02*
X13820357Y-12362405D01*
M02*
