%TF.GenerationSoftware,KiCad,Pcbnew,(7.0.0-0)*%
%TF.CreationDate,2024-03-30T14:09:14+02:00*%
%TF.ProjectId,radio-battery-replacement,72616469-6f2d-4626-9174-746572792d72,rev?*%
%TF.SameCoordinates,Original*%
%TF.FileFunction,Drillmap*%
%TF.FilePolarity,Positive*%
%FSLAX45Y45*%
G04 Gerber Fmt 4.5, Leading zero omitted, Abs format (unit mm)*
G04 Created by KiCad (PCBNEW (7.0.0-0)) date 2024-03-30 14:09:14*
%MOMM*%
%LPD*%
G01*
G04 APERTURE LIST*
%ADD10C,0.050000*%
%ADD11C,0.200000*%
G04 APERTURE END LIST*
D10*
X9000000Y-7000000D02*
X9000000Y-11800000D01*
X9450000Y-11875000D02*
X9950000Y-11875000D01*
X11450000Y-11800000D02*
X12350000Y-11800000D01*
X12350000Y-11875000D02*
X12850000Y-11875000D01*
X12350000Y-11800000D02*
X12350000Y-11875000D01*
X9450000Y-11800000D02*
X9450000Y-11875000D01*
X12850000Y-11875000D02*
X12850000Y-11800000D01*
X9450000Y-11800000D02*
X9000000Y-11800000D01*
X9950000Y-11875000D02*
X9950000Y-11800000D01*
X9950000Y-11800000D02*
X10850000Y-11800000D01*
X12850000Y-11800000D02*
X13300000Y-11800000D01*
X13300000Y-11800000D02*
X13300000Y-7000000D01*
X12250000Y-7000000D02*
X11400000Y-7000000D01*
X11400000Y-6925000D02*
X10900000Y-6925000D01*
X12250000Y-6925000D02*
X12250000Y-7000000D01*
X12850000Y-7000000D02*
X13300000Y-7000000D01*
X11400000Y-7000000D02*
X11400000Y-6925000D01*
X10900000Y-6925000D02*
X10900000Y-7000000D01*
X9400000Y-6925000D02*
X9400000Y-7000000D01*
X12850000Y-7000000D02*
X12850000Y-6925000D01*
X10000000Y-7000000D02*
X10000000Y-6925000D01*
X9400000Y-7000000D02*
X9000000Y-7000000D01*
X10000000Y-6925000D02*
X9400000Y-6925000D01*
X10900000Y-7000000D02*
X10000000Y-7000000D01*
X12850000Y-6925000D02*
X12250000Y-6925000D01*
X11450000Y-11875000D02*
X11450000Y-11800000D01*
X10850000Y-11800000D02*
X10850000Y-11875000D01*
X10850000Y-11875000D02*
X11450000Y-11875000D01*
X9390000Y-11500000D02*
G75*
G03*
X9390000Y-11500000I-140000J0D01*
G01*
X13190000Y-11500000D02*
G75*
G03*
X13190000Y-11500000I-140000J0D01*
G01*
X9390000Y-7300000D02*
G75*
G03*
X9390000Y-7300000I-140000J0D01*
G01*
X10000000Y-7910000D02*
X12300000Y-7910000D01*
X12300000Y-7910000D02*
X12300000Y-11200000D01*
X12300000Y-11200000D02*
X10000000Y-11200000D01*
X10000000Y-11200000D02*
X10000000Y-7910000D01*
X13190000Y-7300000D02*
G75*
G03*
X13190000Y-7300000I-140000J0D01*
G01*
D11*
X9245119Y-12170976D02*
X9245119Y-11970976D01*
X9245119Y-11970976D02*
X9292738Y-11970976D01*
X9292738Y-11970976D02*
X9321310Y-11980500D01*
X9321310Y-11980500D02*
X9340357Y-11999548D01*
X9340357Y-11999548D02*
X9349881Y-12018595D01*
X9349881Y-12018595D02*
X9359405Y-12056690D01*
X9359405Y-12056690D02*
X9359405Y-12085262D01*
X9359405Y-12085262D02*
X9349881Y-12123357D01*
X9349881Y-12123357D02*
X9340357Y-12142405D01*
X9340357Y-12142405D02*
X9321310Y-12161452D01*
X9321310Y-12161452D02*
X9292738Y-12170976D01*
X9292738Y-12170976D02*
X9245119Y-12170976D01*
X9445119Y-12170976D02*
X9445119Y-12037643D01*
X9445119Y-12075738D02*
X9454643Y-12056690D01*
X9454643Y-12056690D02*
X9464167Y-12047167D01*
X9464167Y-12047167D02*
X9483214Y-12037643D01*
X9483214Y-12037643D02*
X9502262Y-12037643D01*
X9568929Y-12170976D02*
X9568929Y-12037643D01*
X9568929Y-11970976D02*
X9559405Y-11980500D01*
X9559405Y-11980500D02*
X9568929Y-11990024D01*
X9568929Y-11990024D02*
X9578452Y-11980500D01*
X9578452Y-11980500D02*
X9568929Y-11970976D01*
X9568929Y-11970976D02*
X9568929Y-11990024D01*
X9692738Y-12170976D02*
X9673690Y-12161452D01*
X9673690Y-12161452D02*
X9664167Y-12142405D01*
X9664167Y-12142405D02*
X9664167Y-11970976D01*
X9797500Y-12170976D02*
X9778452Y-12161452D01*
X9778452Y-12161452D02*
X9768929Y-12142405D01*
X9768929Y-12142405D02*
X9768929Y-11970976D01*
X9993690Y-12170976D02*
X9993690Y-11970976D01*
X9993690Y-11970976D02*
X10060357Y-12113833D01*
X10060357Y-12113833D02*
X10127024Y-11970976D01*
X10127024Y-11970976D02*
X10127024Y-12170976D01*
X10307976Y-12170976D02*
X10307976Y-12066214D01*
X10307976Y-12066214D02*
X10298452Y-12047167D01*
X10298452Y-12047167D02*
X10279405Y-12037643D01*
X10279405Y-12037643D02*
X10241309Y-12037643D01*
X10241309Y-12037643D02*
X10222262Y-12047167D01*
X10307976Y-12161452D02*
X10288929Y-12170976D01*
X10288929Y-12170976D02*
X10241309Y-12170976D01*
X10241309Y-12170976D02*
X10222262Y-12161452D01*
X10222262Y-12161452D02*
X10212738Y-12142405D01*
X10212738Y-12142405D02*
X10212738Y-12123357D01*
X10212738Y-12123357D02*
X10222262Y-12104309D01*
X10222262Y-12104309D02*
X10241309Y-12094786D01*
X10241309Y-12094786D02*
X10288929Y-12094786D01*
X10288929Y-12094786D02*
X10307976Y-12085262D01*
X10403214Y-12037643D02*
X10403214Y-12237643D01*
X10403214Y-12047167D02*
X10422262Y-12037643D01*
X10422262Y-12037643D02*
X10460357Y-12037643D01*
X10460357Y-12037643D02*
X10479405Y-12047167D01*
X10479405Y-12047167D02*
X10488929Y-12056690D01*
X10488929Y-12056690D02*
X10498452Y-12075738D01*
X10498452Y-12075738D02*
X10498452Y-12132881D01*
X10498452Y-12132881D02*
X10488929Y-12151928D01*
X10488929Y-12151928D02*
X10479405Y-12161452D01*
X10479405Y-12161452D02*
X10460357Y-12170976D01*
X10460357Y-12170976D02*
X10422262Y-12170976D01*
X10422262Y-12170976D02*
X10403214Y-12161452D01*
X10584167Y-12151928D02*
X10593690Y-12161452D01*
X10593690Y-12161452D02*
X10584167Y-12170976D01*
X10584167Y-12170976D02*
X10574643Y-12161452D01*
X10574643Y-12161452D02*
X10584167Y-12151928D01*
X10584167Y-12151928D02*
X10584167Y-12170976D01*
X10584167Y-12047167D02*
X10593690Y-12056690D01*
X10593690Y-12056690D02*
X10584167Y-12066214D01*
X10584167Y-12066214D02*
X10574643Y-12056690D01*
X10574643Y-12056690D02*
X10584167Y-12047167D01*
X10584167Y-12047167D02*
X10584167Y-12066214D01*
M02*
