G04 #@! TF.GenerationSoftware,KiCad,Pcbnew,(7.0.0-0)*
G04 #@! TF.CreationDate,2024-03-30T14:09:04+02:00*
G04 #@! TF.ProjectId,radio-battery-replacement,72616469-6f2d-4626-9174-746572792d72,rev?*
G04 #@! TF.SameCoordinates,Original*
G04 #@! TF.FileFunction,Copper,L2,Bot*
G04 #@! TF.FilePolarity,Positive*
%FSLAX46Y46*%
G04 Gerber Fmt 4.6, Leading zero omitted, Abs format (unit mm)*
G04 Created by KiCad (PCBNEW (7.0.0-0)) date 2024-03-30 14:09:04*
%MOMM*%
%LPD*%
G01*
G04 APERTURE LIST*
G04 #@! TA.AperFunction,ViaPad*
%ADD10C,0.800000*%
G04 #@! TD*
G04 APERTURE END LIST*
D10*
X98000000Y-117000000D03*
X99000000Y-117000000D03*
X101000000Y-117000000D03*
X100000000Y-117000000D03*
X111000000Y-118000000D03*
X130000000Y-80000000D03*
X127000000Y-111000000D03*
X113000000Y-70000000D03*
X128000000Y-71000000D03*
X112000000Y-118000000D03*
X125000000Y-118000000D03*
X113000000Y-118000000D03*
X110000000Y-70000000D03*
X92000000Y-77000000D03*
X127000000Y-80000000D03*
X126000000Y-71000000D03*
X95000000Y-70000000D03*
X130000000Y-111000000D03*
X95000000Y-111000000D03*
X109000000Y-77000000D03*
X110000000Y-118000000D03*
X126000000Y-118000000D03*
X92000000Y-111000000D03*
X127000000Y-118000000D03*
X114000000Y-77000000D03*
X95000000Y-77000000D03*
X99000000Y-70000000D03*
G04 #@! TA.AperFunction,Conductor*
G36*
X99912500Y-69292113D02*
G01*
X99957887Y-69337500D01*
X99974500Y-69399500D01*
X99974500Y-69989438D01*
X99973912Y-69995397D01*
X99974039Y-69996039D01*
X99972399Y-70000000D01*
X99974500Y-70005072D01*
X99980483Y-70019517D01*
X100000000Y-70027601D01*
X100003961Y-70025959D01*
X100004601Y-70026087D01*
X100010563Y-70025500D01*
X108989437Y-70025500D01*
X108995398Y-70026087D01*
X108996037Y-70025959D01*
X109000000Y-70027601D01*
X109019517Y-70019517D01*
X109025500Y-70005072D01*
X109027601Y-70000000D01*
X109025959Y-69996037D01*
X109026087Y-69995397D01*
X109025500Y-69989438D01*
X109025500Y-69399500D01*
X109042113Y-69337500D01*
X109087500Y-69292113D01*
X109149500Y-69275500D01*
X113850500Y-69275500D01*
X113912500Y-69292113D01*
X113957887Y-69337500D01*
X113974500Y-69399500D01*
X113974500Y-69989438D01*
X113973912Y-69995397D01*
X113974039Y-69996039D01*
X113972399Y-70000000D01*
X113974500Y-70005072D01*
X113980483Y-70019517D01*
X114000000Y-70027601D01*
X114003961Y-70025959D01*
X114004601Y-70026087D01*
X114010563Y-70025500D01*
X122489437Y-70025500D01*
X122495398Y-70026087D01*
X122496037Y-70025959D01*
X122500000Y-70027601D01*
X122519517Y-70019517D01*
X122525500Y-70005072D01*
X122527601Y-70000000D01*
X122525959Y-69996037D01*
X122526087Y-69995397D01*
X122525500Y-69989438D01*
X122525500Y-69399500D01*
X122542113Y-69337500D01*
X122587500Y-69292113D01*
X122649500Y-69275500D01*
X128350500Y-69275500D01*
X128412500Y-69292113D01*
X128457887Y-69337500D01*
X128474500Y-69399500D01*
X128474500Y-69989438D01*
X128473912Y-69995397D01*
X128474039Y-69996039D01*
X128472399Y-70000000D01*
X128474500Y-70005072D01*
X128480483Y-70019517D01*
X128500000Y-70027601D01*
X128503961Y-70025959D01*
X128504601Y-70026087D01*
X128510563Y-70025500D01*
X132850500Y-70025500D01*
X132912500Y-70042113D01*
X132957887Y-70087500D01*
X132974500Y-70149500D01*
X132974500Y-117850500D01*
X132957887Y-117912500D01*
X132912500Y-117957887D01*
X132850500Y-117974500D01*
X128510562Y-117974500D01*
X128504602Y-117973912D01*
X128503960Y-117974039D01*
X128500000Y-117972399D01*
X128494928Y-117974500D01*
X128480483Y-117980483D01*
X128472399Y-118000000D01*
X128474039Y-118003960D01*
X128473912Y-118004601D01*
X128474500Y-118010563D01*
X128474500Y-118600500D01*
X128457887Y-118662500D01*
X128412500Y-118707887D01*
X128350500Y-118724500D01*
X123649500Y-118724500D01*
X123587500Y-118707887D01*
X123542113Y-118662500D01*
X123525500Y-118600500D01*
X123525500Y-118010563D01*
X123526087Y-118004601D01*
X123525959Y-118003961D01*
X123527601Y-118000000D01*
X123519517Y-117980483D01*
X123505072Y-117974500D01*
X123500000Y-117972399D01*
X123496039Y-117974039D01*
X123495397Y-117973912D01*
X123489438Y-117974500D01*
X114510562Y-117974500D01*
X114504602Y-117973912D01*
X114503960Y-117974039D01*
X114500000Y-117972399D01*
X114494928Y-117974500D01*
X114480483Y-117980483D01*
X114472399Y-118000000D01*
X114474039Y-118003960D01*
X114473912Y-118004601D01*
X114474500Y-118010563D01*
X114474500Y-118600500D01*
X114457887Y-118662500D01*
X114412500Y-118707887D01*
X114350500Y-118724500D01*
X108649500Y-118724500D01*
X108587500Y-118707887D01*
X108542113Y-118662500D01*
X108525500Y-118600500D01*
X108525500Y-118010563D01*
X108526087Y-118004601D01*
X108525959Y-118003961D01*
X108527601Y-118000000D01*
X108519517Y-117980483D01*
X108505072Y-117974500D01*
X108500000Y-117972399D01*
X108496039Y-117974039D01*
X108495397Y-117973912D01*
X108489438Y-117974500D01*
X102637500Y-117974500D01*
X102575500Y-117957887D01*
X102530113Y-117912500D01*
X102513500Y-117850500D01*
X102513500Y-116128053D01*
X102513500Y-116124000D01*
X102496003Y-115991095D01*
X102479390Y-115929095D01*
X102428091Y-115805249D01*
X102346486Y-115698901D01*
X102301099Y-115653514D01*
X102260158Y-115622098D01*
X102201200Y-115576857D01*
X102201196Y-115576855D01*
X102194751Y-115571909D01*
X102187242Y-115568798D01*
X102187241Y-115568798D01*
X102074660Y-115522165D01*
X102074654Y-115522163D01*
X102070905Y-115520610D01*
X102066984Y-115519559D01*
X102066980Y-115519558D01*
X102012823Y-115505046D01*
X102012810Y-115505043D01*
X102008905Y-115503997D01*
X101993025Y-115501906D01*
X101880020Y-115487029D01*
X101880016Y-115487028D01*
X101876000Y-115486500D01*
X101871947Y-115486500D01*
X94006613Y-115486500D01*
X93952153Y-115473900D01*
X93908760Y-115438662D01*
X93885252Y-115387947D01*
X93886407Y-115332060D01*
X93909616Y-115240408D01*
X93910876Y-115235434D01*
X93930385Y-115000000D01*
X129069615Y-115000000D01*
X129070039Y-115005117D01*
X129088699Y-115230314D01*
X129088700Y-115230322D01*
X129089124Y-115235434D01*
X129090381Y-115240399D01*
X129090383Y-115240409D01*
X129127745Y-115387947D01*
X129147117Y-115464445D01*
X129149177Y-115469141D01*
X129239953Y-115676091D01*
X129239956Y-115676097D01*
X129242014Y-115680788D01*
X129244814Y-115685074D01*
X129244818Y-115685081D01*
X129297758Y-115766111D01*
X129371225Y-115878561D01*
X129374701Y-115882337D01*
X129374705Y-115882342D01*
X129527752Y-116048594D01*
X129527756Y-116048598D01*
X129531227Y-116052368D01*
X129717654Y-116197470D01*
X129925421Y-116309908D01*
X130148861Y-116386616D01*
X130381880Y-116425500D01*
X130612987Y-116425500D01*
X130618120Y-116425500D01*
X130851139Y-116386616D01*
X131074579Y-116309908D01*
X131282346Y-116197470D01*
X131468773Y-116052368D01*
X131628775Y-115878561D01*
X131757986Y-115680788D01*
X131852883Y-115464445D01*
X131910876Y-115235434D01*
X131930385Y-115000000D01*
X131910876Y-114764566D01*
X131852883Y-114535555D01*
X131757986Y-114319212D01*
X131628775Y-114121439D01*
X131625297Y-114117661D01*
X131625294Y-114117657D01*
X131472247Y-113951405D01*
X131472242Y-113951400D01*
X131468773Y-113947632D01*
X131375559Y-113875080D01*
X131286395Y-113805681D01*
X131286391Y-113805678D01*
X131282346Y-113802530D01*
X131277841Y-113800092D01*
X131277838Y-113800090D01*
X131079083Y-113692529D01*
X131079078Y-113692527D01*
X131074579Y-113690092D01*
X131069733Y-113688428D01*
X131069730Y-113688427D01*
X130900107Y-113630195D01*
X130851139Y-113613384D01*
X130846089Y-113612541D01*
X130846080Y-113612539D01*
X130623182Y-113575344D01*
X130623173Y-113575343D01*
X130618120Y-113574500D01*
X130381880Y-113574500D01*
X130376827Y-113575343D01*
X130376817Y-113575344D01*
X130153919Y-113612539D01*
X130153907Y-113612541D01*
X130148861Y-113613384D01*
X130144008Y-113615049D01*
X130144008Y-113615050D01*
X129930269Y-113688427D01*
X129930262Y-113688430D01*
X129925421Y-113690092D01*
X129920925Y-113692524D01*
X129920916Y-113692529D01*
X129722161Y-113800090D01*
X129722152Y-113800095D01*
X129717654Y-113802530D01*
X129713613Y-113805674D01*
X129713604Y-113805681D01*
X129535275Y-113944481D01*
X129531227Y-113947632D01*
X129527762Y-113951394D01*
X129527752Y-113951405D01*
X129374705Y-114117657D01*
X129374696Y-114117668D01*
X129371225Y-114121439D01*
X129368419Y-114125733D01*
X129368415Y-114125739D01*
X129244818Y-114314918D01*
X129244811Y-114314930D01*
X129242014Y-114319212D01*
X129239959Y-114323896D01*
X129239953Y-114323908D01*
X129149177Y-114530858D01*
X129147117Y-114535555D01*
X129145859Y-114540520D01*
X129145858Y-114540525D01*
X129090383Y-114759590D01*
X129090380Y-114759602D01*
X129089124Y-114764566D01*
X129088700Y-114769675D01*
X129088699Y-114769685D01*
X129070039Y-114994883D01*
X129069615Y-115000000D01*
X93930385Y-115000000D01*
X93910876Y-114764566D01*
X93852883Y-114535555D01*
X93757986Y-114319212D01*
X93628775Y-114121439D01*
X93625297Y-114117661D01*
X93625294Y-114117657D01*
X93472247Y-113951405D01*
X93472242Y-113951400D01*
X93468773Y-113947632D01*
X93375559Y-113875080D01*
X93286395Y-113805681D01*
X93286391Y-113805678D01*
X93282346Y-113802530D01*
X93277841Y-113800092D01*
X93277838Y-113800090D01*
X93079083Y-113692529D01*
X93079078Y-113692527D01*
X93074579Y-113690092D01*
X93069733Y-113688428D01*
X93069730Y-113688427D01*
X92900107Y-113630195D01*
X92851139Y-113613384D01*
X92846089Y-113612541D01*
X92846080Y-113612539D01*
X92623182Y-113575344D01*
X92623173Y-113575343D01*
X92618120Y-113574500D01*
X92381880Y-113574500D01*
X92376827Y-113575343D01*
X92376817Y-113575344D01*
X92153919Y-113612539D01*
X92153907Y-113612541D01*
X92148861Y-113613384D01*
X92144008Y-113615049D01*
X92144008Y-113615050D01*
X91930269Y-113688427D01*
X91930262Y-113688430D01*
X91925421Y-113690092D01*
X91920925Y-113692524D01*
X91920916Y-113692529D01*
X91722161Y-113800090D01*
X91722152Y-113800095D01*
X91717654Y-113802530D01*
X91713613Y-113805674D01*
X91713604Y-113805681D01*
X91535275Y-113944481D01*
X91531227Y-113947632D01*
X91527762Y-113951394D01*
X91527752Y-113951405D01*
X91374705Y-114117657D01*
X91374696Y-114117668D01*
X91371225Y-114121439D01*
X91368419Y-114125733D01*
X91368415Y-114125739D01*
X91244818Y-114314918D01*
X91244811Y-114314930D01*
X91242014Y-114319212D01*
X91239959Y-114323896D01*
X91239953Y-114323908D01*
X91149177Y-114530858D01*
X91147117Y-114535555D01*
X91145859Y-114540520D01*
X91145858Y-114540525D01*
X91090383Y-114759590D01*
X91090380Y-114759602D01*
X91089124Y-114764566D01*
X91088700Y-114769675D01*
X91088699Y-114769685D01*
X91070039Y-114994883D01*
X91069615Y-115000000D01*
X91070039Y-115005117D01*
X91088699Y-115230314D01*
X91088700Y-115230322D01*
X91089124Y-115235434D01*
X91090381Y-115240399D01*
X91090383Y-115240409D01*
X91127745Y-115387947D01*
X91147117Y-115464445D01*
X91149177Y-115469141D01*
X91239953Y-115676091D01*
X91239956Y-115676097D01*
X91242014Y-115680788D01*
X91244814Y-115685074D01*
X91244818Y-115685081D01*
X91297758Y-115766111D01*
X91371225Y-115878561D01*
X91374701Y-115882337D01*
X91374705Y-115882342D01*
X91527748Y-116048589D01*
X91531227Y-116052368D01*
X91535277Y-116055520D01*
X91538187Y-116058199D01*
X91570179Y-116105547D01*
X91577542Y-116162214D01*
X91558712Y-116216165D01*
X91555076Y-116221858D01*
X91555071Y-116221866D01*
X91551274Y-116227813D01*
X91548915Y-116234459D01*
X91548912Y-116234466D01*
X91513490Y-116334279D01*
X91513487Y-116334288D01*
X91512312Y-116337600D01*
X91511518Y-116341031D01*
X91511518Y-116341032D01*
X91504862Y-116369805D01*
X91499713Y-116392060D01*
X91499315Y-116395543D01*
X91499313Y-116395557D01*
X91486899Y-116504297D01*
X91486898Y-116504308D01*
X91486500Y-116507798D01*
X91486500Y-116511324D01*
X91486500Y-117850500D01*
X91469887Y-117912500D01*
X91424500Y-117957887D01*
X91362500Y-117974500D01*
X90149500Y-117974500D01*
X90087500Y-117957887D01*
X90042113Y-117912500D01*
X90025500Y-117850500D01*
X90025500Y-112000000D01*
X99972399Y-112000000D01*
X99974500Y-112005072D01*
X99980483Y-112019517D01*
X100000000Y-112027601D01*
X100003961Y-112025959D01*
X100004601Y-112026087D01*
X100010563Y-112025500D01*
X122989437Y-112025500D01*
X122995398Y-112026087D01*
X122996037Y-112025959D01*
X123000000Y-112027601D01*
X123019517Y-112019517D01*
X123025500Y-112005072D01*
X123027601Y-112000000D01*
X123025959Y-111996037D01*
X123026087Y-111995397D01*
X123025500Y-111989438D01*
X123025500Y-79110563D01*
X123026087Y-79104601D01*
X123025959Y-79103961D01*
X123027601Y-79100000D01*
X123019517Y-79080483D01*
X123005072Y-79074500D01*
X123000000Y-79072399D01*
X122996039Y-79074039D01*
X122995397Y-79073912D01*
X122989438Y-79074500D01*
X100010562Y-79074500D01*
X100004602Y-79073912D01*
X100003960Y-79074039D01*
X100000000Y-79072399D01*
X99994928Y-79074500D01*
X99980483Y-79080483D01*
X99972399Y-79100000D01*
X99974039Y-79103960D01*
X99973912Y-79104601D01*
X99974500Y-79110563D01*
X99974500Y-111989438D01*
X99973912Y-111995397D01*
X99974039Y-111996039D01*
X99972399Y-112000000D01*
X90025500Y-112000000D01*
X90025500Y-73000000D01*
X91069615Y-73000000D01*
X91070039Y-73005117D01*
X91088699Y-73230314D01*
X91088700Y-73230322D01*
X91089124Y-73235434D01*
X91090381Y-73240399D01*
X91090383Y-73240409D01*
X91142522Y-73446299D01*
X91147117Y-73464445D01*
X91149177Y-73469141D01*
X91239953Y-73676091D01*
X91239956Y-73676097D01*
X91242014Y-73680788D01*
X91244814Y-73685074D01*
X91244818Y-73685081D01*
X91348799Y-73844235D01*
X91371225Y-73878561D01*
X91374701Y-73882337D01*
X91374705Y-73882342D01*
X91527752Y-74048594D01*
X91527756Y-74048598D01*
X91531227Y-74052368D01*
X91717654Y-74197470D01*
X91925421Y-74309908D01*
X92148861Y-74386616D01*
X92381880Y-74425500D01*
X92612987Y-74425500D01*
X92618120Y-74425500D01*
X92851139Y-74386616D01*
X93074579Y-74309908D01*
X93282346Y-74197470D01*
X93468773Y-74052368D01*
X93628775Y-73878561D01*
X93757986Y-73680788D01*
X93852883Y-73464445D01*
X93910876Y-73235434D01*
X93930385Y-73000000D01*
X129069615Y-73000000D01*
X129070039Y-73005117D01*
X129088699Y-73230314D01*
X129088700Y-73230322D01*
X129089124Y-73235434D01*
X129090381Y-73240399D01*
X129090383Y-73240409D01*
X129142522Y-73446299D01*
X129147117Y-73464445D01*
X129149177Y-73469141D01*
X129239953Y-73676091D01*
X129239956Y-73676097D01*
X129242014Y-73680788D01*
X129244814Y-73685074D01*
X129244818Y-73685081D01*
X129348799Y-73844235D01*
X129371225Y-73878561D01*
X129374701Y-73882337D01*
X129374705Y-73882342D01*
X129527752Y-74048594D01*
X129527756Y-74048598D01*
X129531227Y-74052368D01*
X129717654Y-74197470D01*
X129925421Y-74309908D01*
X130148861Y-74386616D01*
X130381880Y-74425500D01*
X130612987Y-74425500D01*
X130618120Y-74425500D01*
X130851139Y-74386616D01*
X131074579Y-74309908D01*
X131282346Y-74197470D01*
X131468773Y-74052368D01*
X131628775Y-73878561D01*
X131757986Y-73680788D01*
X131852883Y-73464445D01*
X131910876Y-73235434D01*
X131930385Y-73000000D01*
X131910876Y-72764566D01*
X131852883Y-72535555D01*
X131757986Y-72319212D01*
X131628775Y-72121439D01*
X131625297Y-72117661D01*
X131625294Y-72117657D01*
X131472247Y-71951405D01*
X131472242Y-71951400D01*
X131468773Y-71947632D01*
X131375559Y-71875081D01*
X131286395Y-71805681D01*
X131286391Y-71805678D01*
X131282346Y-71802530D01*
X131277841Y-71800092D01*
X131277838Y-71800090D01*
X131079083Y-71692529D01*
X131079078Y-71692527D01*
X131074579Y-71690092D01*
X131069733Y-71688428D01*
X131069730Y-71688427D01*
X130900107Y-71630195D01*
X130851139Y-71613384D01*
X130846089Y-71612541D01*
X130846080Y-71612539D01*
X130623182Y-71575344D01*
X130623173Y-71575343D01*
X130618120Y-71574500D01*
X130381880Y-71574500D01*
X130376827Y-71575343D01*
X130376817Y-71575344D01*
X130153919Y-71612539D01*
X130153907Y-71612541D01*
X130148861Y-71613384D01*
X130144008Y-71615049D01*
X130144008Y-71615050D01*
X129930269Y-71688427D01*
X129930262Y-71688430D01*
X129925421Y-71690092D01*
X129920925Y-71692524D01*
X129920916Y-71692529D01*
X129722161Y-71800090D01*
X129722152Y-71800095D01*
X129717654Y-71802530D01*
X129713613Y-71805674D01*
X129713604Y-71805681D01*
X129535275Y-71944481D01*
X129531227Y-71947632D01*
X129527762Y-71951394D01*
X129527752Y-71951405D01*
X129374705Y-72117657D01*
X129374696Y-72117668D01*
X129371225Y-72121439D01*
X129368419Y-72125733D01*
X129368415Y-72125739D01*
X129244818Y-72314918D01*
X129244811Y-72314930D01*
X129242014Y-72319212D01*
X129239959Y-72323896D01*
X129239953Y-72323908D01*
X129149177Y-72530858D01*
X129147117Y-72535555D01*
X129145859Y-72540520D01*
X129145858Y-72540525D01*
X129090383Y-72759590D01*
X129090380Y-72759602D01*
X129089124Y-72764566D01*
X129088700Y-72769675D01*
X129088699Y-72769685D01*
X129070039Y-72994883D01*
X129069615Y-73000000D01*
X93930385Y-73000000D01*
X93910876Y-72764566D01*
X93852883Y-72535555D01*
X93757986Y-72319212D01*
X93628775Y-72121439D01*
X93625297Y-72117661D01*
X93625294Y-72117657D01*
X93472247Y-71951405D01*
X93472242Y-71951400D01*
X93468773Y-71947632D01*
X93375559Y-71875081D01*
X93286395Y-71805681D01*
X93286391Y-71805678D01*
X93282346Y-71802530D01*
X93277841Y-71800092D01*
X93277838Y-71800090D01*
X93079083Y-71692529D01*
X93079078Y-71692527D01*
X93074579Y-71690092D01*
X93069733Y-71688428D01*
X93069730Y-71688427D01*
X92900107Y-71630195D01*
X92851139Y-71613384D01*
X92846089Y-71612541D01*
X92846080Y-71612539D01*
X92623182Y-71575344D01*
X92623173Y-71575343D01*
X92618120Y-71574500D01*
X92381880Y-71574500D01*
X92376827Y-71575343D01*
X92376817Y-71575344D01*
X92153919Y-71612539D01*
X92153907Y-71612541D01*
X92148861Y-71613384D01*
X92144008Y-71615049D01*
X92144008Y-71615050D01*
X91930269Y-71688427D01*
X91930262Y-71688430D01*
X91925421Y-71690092D01*
X91920925Y-71692524D01*
X91920916Y-71692529D01*
X91722161Y-71800090D01*
X91722152Y-71800095D01*
X91717654Y-71802530D01*
X91713613Y-71805674D01*
X91713604Y-71805681D01*
X91535275Y-71944481D01*
X91531227Y-71947632D01*
X91527762Y-71951394D01*
X91527752Y-71951405D01*
X91374705Y-72117657D01*
X91374696Y-72117668D01*
X91371225Y-72121439D01*
X91368419Y-72125733D01*
X91368415Y-72125739D01*
X91244818Y-72314918D01*
X91244811Y-72314930D01*
X91242014Y-72319212D01*
X91239959Y-72323896D01*
X91239953Y-72323908D01*
X91149177Y-72530858D01*
X91147117Y-72535555D01*
X91145859Y-72540520D01*
X91145858Y-72540525D01*
X91090383Y-72759590D01*
X91090380Y-72759602D01*
X91089124Y-72764566D01*
X91088700Y-72769675D01*
X91088699Y-72769685D01*
X91070039Y-72994883D01*
X91069615Y-73000000D01*
X90025500Y-73000000D01*
X90025500Y-70149500D01*
X90042113Y-70087500D01*
X90087500Y-70042113D01*
X90149500Y-70025500D01*
X93989437Y-70025500D01*
X93995398Y-70026087D01*
X93996037Y-70025959D01*
X94000000Y-70027601D01*
X94019517Y-70019517D01*
X94025500Y-70005072D01*
X94027601Y-70000000D01*
X94025959Y-69996037D01*
X94026087Y-69995397D01*
X94025500Y-69989438D01*
X94025500Y-69399500D01*
X94042113Y-69337500D01*
X94087500Y-69292113D01*
X94149500Y-69275500D01*
X99850500Y-69275500D01*
X99912500Y-69292113D01*
G37*
G04 #@! TD.AperFunction*
G04 #@! TA.AperFunction,Conductor*
G36*
X101938000Y-116016613D02*
G01*
X101983387Y-116062000D01*
X102000000Y-116124000D01*
X102000000Y-117850500D01*
X101983387Y-117912500D01*
X101938000Y-117957887D01*
X101876000Y-117974500D01*
X99510562Y-117974500D01*
X99504602Y-117973912D01*
X99503960Y-117974039D01*
X99500000Y-117972399D01*
X99494928Y-117974500D01*
X99480483Y-117980483D01*
X99472399Y-118000000D01*
X99474039Y-118003960D01*
X99473912Y-118004601D01*
X99474500Y-118010563D01*
X99474500Y-118600500D01*
X99457887Y-118662500D01*
X99412500Y-118707887D01*
X99350500Y-118724500D01*
X94649500Y-118724500D01*
X94587500Y-118707887D01*
X94542113Y-118662500D01*
X94525500Y-118600500D01*
X94525500Y-118010563D01*
X94526087Y-118004601D01*
X94525959Y-118003961D01*
X94527601Y-118000000D01*
X94519517Y-117980483D01*
X94505072Y-117974500D01*
X94500000Y-117972399D01*
X94496039Y-117974039D01*
X94495397Y-117973912D01*
X94489438Y-117974500D01*
X92124000Y-117974500D01*
X92062000Y-117957887D01*
X92016613Y-117912500D01*
X92000000Y-117850500D01*
X92000000Y-116507798D01*
X92012599Y-116453338D01*
X92047836Y-116409946D01*
X92098550Y-116386438D01*
X92148717Y-116387473D01*
X92148861Y-116386616D01*
X92381880Y-116425500D01*
X92612987Y-116425500D01*
X92618120Y-116425500D01*
X92851139Y-116386616D01*
X93074579Y-116309908D01*
X93282346Y-116197470D01*
X93468773Y-116052368D01*
X93480143Y-116040016D01*
X93521563Y-116010444D01*
X93571373Y-116000000D01*
X101876000Y-116000000D01*
X101938000Y-116016613D01*
G37*
G04 #@! TD.AperFunction*
M02*
