G04 #@! TF.GenerationSoftware,KiCad,Pcbnew,(7.0.0-0)*
G04 #@! TF.CreationDate,2024-03-30T14:09:04+02:00*
G04 #@! TF.ProjectId,radio-battery-replacement,72616469-6f2d-4626-9174-746572792d72,rev?*
G04 #@! TF.SameCoordinates,Original*
G04 #@! TF.FileFunction,Legend,Bot*
G04 #@! TF.FilePolarity,Positive*
%FSLAX46Y46*%
G04 Gerber Fmt 4.6, Leading zero omitted, Abs format (unit mm)*
G04 Created by KiCad (PCBNEW (7.0.0-0)) date 2024-03-30 14:09:04*
%MOMM*%
%LPD*%
G01*
G04 APERTURE LIST*
G04 APERTURE END LIST*
%LPC*%
G36*
X128438000Y-69266613D02*
G01*
X128483387Y-69312000D01*
X128500000Y-69374000D01*
X128500000Y-69983674D01*
X128503450Y-69996549D01*
X128516326Y-70000000D01*
X129876000Y-70000000D01*
X129938000Y-70016613D01*
X129983387Y-70062000D01*
X130000000Y-70124000D01*
X130000000Y-71613742D01*
X129990392Y-71661600D01*
X129963059Y-71702041D01*
X129922234Y-71728800D01*
X129874599Y-71747941D01*
X129865235Y-71752662D01*
X129671993Y-71871645D01*
X129663563Y-71877880D01*
X129559938Y-71969083D01*
X129521796Y-71992014D01*
X129478014Y-72000000D01*
X121124000Y-72000000D01*
X121062000Y-71983387D01*
X121016613Y-71938000D01*
X121000000Y-71876000D01*
X121000000Y-70124000D01*
X121016613Y-70062000D01*
X121062000Y-70016613D01*
X121124000Y-70000000D01*
X122483674Y-70000000D01*
X122496549Y-69996549D01*
X122500000Y-69983674D01*
X122500000Y-69374000D01*
X122516613Y-69312000D01*
X122562000Y-69266613D01*
X122624000Y-69250000D01*
X128376000Y-69250000D01*
X128438000Y-69266613D01*
G37*
G36*
X101938000Y-116016613D02*
G01*
X101983387Y-116062000D01*
X102000000Y-116124000D01*
X102000000Y-117876000D01*
X101983387Y-117938000D01*
X101938000Y-117983387D01*
X101876000Y-118000000D01*
X99516326Y-118000000D01*
X99503450Y-118003450D01*
X99500000Y-118016326D01*
X99500000Y-118626000D01*
X99483387Y-118688000D01*
X99438000Y-118733387D01*
X99376000Y-118750000D01*
X94624000Y-118750000D01*
X94562000Y-118733387D01*
X94516613Y-118688000D01*
X94500000Y-118626000D01*
X94500000Y-118016326D01*
X94496549Y-118003450D01*
X94483674Y-118000000D01*
X92124000Y-118000000D01*
X92062000Y-117983387D01*
X92016613Y-117938000D01*
X92000000Y-117876000D01*
X92000000Y-116472798D01*
X92012117Y-116419335D01*
X92046101Y-116376321D01*
X92095309Y-116352163D01*
X92150124Y-116351581D01*
X92317025Y-116387551D01*
X92327438Y-116388884D01*
X92554158Y-116398515D01*
X92564635Y-116398070D01*
X92789727Y-116369245D01*
X92799987Y-116367034D01*
X93016964Y-116300586D01*
X93026701Y-116296673D01*
X93229332Y-116194509D01*
X93238256Y-116189014D01*
X93420716Y-116054068D01*
X93428592Y-116047136D01*
X93437156Y-116038201D01*
X93478012Y-116009949D01*
X93526679Y-116000000D01*
X101876000Y-116000000D01*
X101938000Y-116016613D01*
G37*
M02*
