G04 #@! TF.GenerationSoftware,KiCad,Pcbnew,(7.0.0-0)*
G04 #@! TF.CreationDate,2024-03-30T14:09:05+02:00*
G04 #@! TF.ProjectId,radio-battery-replacement,72616469-6f2d-4626-9174-746572792d72,rev?*
G04 #@! TF.SameCoordinates,Original*
G04 #@! TF.FileFunction,Soldermask,Top*
G04 #@! TF.FilePolarity,Negative*
%FSLAX46Y46*%
G04 Gerber Fmt 4.6, Leading zero omitted, Abs format (unit mm)*
G04 Created by KiCad (PCBNEW (7.0.0-0)) date 2024-03-30 14:09:05*
%MOMM*%
%LPD*%
G01*
G04 APERTURE LIST*
G04 Aperture macros list*
%AMRoundRect*
0 Rectangle with rounded corners*
0 $1 Rounding radius*
0 $2 $3 $4 $5 $6 $7 $8 $9 X,Y pos of 4 corners*
0 Add a 4 corners polygon primitive as box body*
4,1,4,$2,$3,$4,$5,$6,$7,$8,$9,$2,$3,0*
0 Add four circle primitives for the rounded corners*
1,1,$1+$1,$2,$3*
1,1,$1+$1,$4,$5*
1,1,$1+$1,$6,$7*
1,1,$1+$1,$8,$9*
0 Add four rect primitives between the rounded corners*
20,1,$1+$1,$2,$3,$4,$5,0*
20,1,$1+$1,$4,$5,$6,$7,0*
20,1,$1+$1,$6,$7,$8,$9,0*
20,1,$1+$1,$8,$9,$2,$3,0*%
G04 Aperture macros list end*
%ADD10RoundRect,0.051000X-0.350000X-0.600000X0.350000X-0.600000X0.350000X0.600000X-0.350000X0.600000X0*%
%ADD11RoundRect,0.051000X0.380000X0.600000X-0.380000X0.600000X-0.380000X-0.600000X0.380000X-0.600000X0*%
%ADD12RoundRect,0.051000X0.400000X0.600000X-0.400000X0.600000X-0.400000X-0.600000X0.400000X-0.600000X0*%
%ADD13RoundRect,0.051000X0.350000X0.600000X-0.350000X0.600000X-0.350000X-0.600000X0.350000X-0.600000X0*%
%ADD14RoundRect,0.051000X-0.380000X-0.600000X0.380000X-0.600000X0.380000X0.600000X-0.380000X0.600000X0*%
%ADD15RoundRect,0.051000X-0.400000X-0.600000X0.400000X-0.600000X0.400000X0.600000X-0.400000X0.600000X0*%
%ADD16RoundRect,0.051000X-0.900000X-0.675000X0.900000X-0.675000X0.900000X0.675000X-0.900000X0.675000X0*%
%ADD17RoundRect,0.051000X-0.900000X-0.750000X0.900000X-0.750000X0.900000X0.750000X-0.900000X0.750000X0*%
%ADD18RoundRect,0.301000X-0.400000X-0.625000X0.400000X-0.625000X0.400000X0.625000X-0.400000X0.625000X0*%
G04 APERTURE END LIST*
D10*
X111000000Y-72967500D03*
D11*
X113020000Y-72967500D03*
D12*
X114250000Y-72967500D03*
D13*
X112000000Y-72967500D03*
D14*
X109980000Y-72967500D03*
D15*
X108750000Y-72967500D03*
D16*
X106375000Y-73022500D03*
D17*
X106375000Y-76602500D03*
D16*
X116625000Y-73022500D03*
D17*
X116625000Y-76602500D03*
D18*
X121450000Y-77000000D03*
X124550000Y-77000000D03*
X121450000Y-74000000D03*
X124550000Y-74000000D03*
G36*
X128438000Y-69266613D02*
G01*
X128483387Y-69312000D01*
X128500000Y-69374000D01*
X128500000Y-69983674D01*
X128503450Y-69996549D01*
X128516326Y-70000000D01*
X129887065Y-70000000D01*
X129948878Y-70016505D01*
X129994236Y-70061627D01*
X130011063Y-70123354D01*
X130018783Y-71605546D01*
X130009343Y-71653652D01*
X129981998Y-71694339D01*
X129941021Y-71721250D01*
X129874593Y-71747944D01*
X129865236Y-71752661D01*
X129671993Y-71871645D01*
X129663563Y-71877880D01*
X129559938Y-71969083D01*
X129521796Y-71992014D01*
X129478014Y-72000000D01*
X121144195Y-72000000D01*
X121082382Y-71983495D01*
X121037024Y-71938373D01*
X121020197Y-71876646D01*
X121011069Y-70124646D01*
X121027465Y-70062373D01*
X121072881Y-70016721D01*
X121135067Y-70000000D01*
X122483674Y-70000000D01*
X122496549Y-69996549D01*
X122500000Y-69983674D01*
X122500000Y-69374000D01*
X122516613Y-69312000D01*
X122562000Y-69266613D01*
X122624000Y-69250000D01*
X128376000Y-69250000D01*
X128438000Y-69266613D01*
G37*
G36*
X101938000Y-116016613D02*
G01*
X101983387Y-116062000D01*
X102000000Y-116124000D01*
X102000000Y-117876000D01*
X101983387Y-117938000D01*
X101938000Y-117983387D01*
X101876000Y-118000000D01*
X99516326Y-118000000D01*
X99503450Y-118003450D01*
X99500000Y-118016326D01*
X99500000Y-118626000D01*
X99483387Y-118688000D01*
X99438000Y-118733387D01*
X99376000Y-118750000D01*
X94624000Y-118750000D01*
X94562000Y-118733387D01*
X94516613Y-118688000D01*
X94500000Y-118626000D01*
X94500000Y-118016326D01*
X94496549Y-118003450D01*
X94483674Y-118000000D01*
X92124000Y-118000000D01*
X92062000Y-117983387D01*
X92016613Y-117938000D01*
X92000000Y-117876000D01*
X92000000Y-116472798D01*
X92012117Y-116419335D01*
X92046101Y-116376321D01*
X92095309Y-116352163D01*
X92150124Y-116351581D01*
X92317025Y-116387551D01*
X92327438Y-116388884D01*
X92554158Y-116398515D01*
X92564635Y-116398070D01*
X92789727Y-116369245D01*
X92799987Y-116367034D01*
X93016964Y-116300586D01*
X93026701Y-116296673D01*
X93229332Y-116194509D01*
X93238256Y-116189014D01*
X93420716Y-116054068D01*
X93428592Y-116047136D01*
X93437156Y-116038201D01*
X93478012Y-116009949D01*
X93526679Y-116000000D01*
X101876000Y-116000000D01*
X101938000Y-116016613D01*
G37*
G36*
X101989985Y-115993068D02*
G01*
X102001606Y-115996181D01*
X102002503Y-115996700D01*
X102003300Y-115997498D01*
X102003817Y-115998393D01*
X102006932Y-116010015D01*
X102007000Y-116010533D01*
X102007000Y-117989467D01*
X102006932Y-117989985D01*
X102003817Y-118001607D01*
X102003299Y-118002503D01*
X102002503Y-118003299D01*
X102001607Y-118003817D01*
X101989985Y-118006932D01*
X101989467Y-118007000D01*
X99585263Y-118007000D01*
X99546034Y-118017511D01*
X99517511Y-118046034D01*
X99507000Y-118085263D01*
X99507000Y-118739467D01*
X99506932Y-118739985D01*
X99503817Y-118751607D01*
X99503299Y-118752503D01*
X99502503Y-118753299D01*
X99501607Y-118753817D01*
X99489985Y-118756932D01*
X99489467Y-118757000D01*
X94510533Y-118757000D01*
X94510015Y-118756932D01*
X94498393Y-118753817D01*
X94497498Y-118753300D01*
X94496700Y-118752503D01*
X94496181Y-118751606D01*
X94493068Y-118739985D01*
X94493000Y-118739467D01*
X94493000Y-118085263D01*
X94482488Y-118046034D01*
X94453966Y-118017511D01*
X94414737Y-118007000D01*
X92010533Y-118007000D01*
X92010015Y-118006932D01*
X91998393Y-118003817D01*
X91997498Y-118003300D01*
X91996700Y-118002503D01*
X91996181Y-118001606D01*
X91995215Y-117998000D01*
X92002000Y-117998000D01*
X94500000Y-117998000D01*
X94501414Y-117998586D01*
X94502000Y-118000000D01*
X94502000Y-118748000D01*
X99498000Y-118748000D01*
X99498000Y-118000000D01*
X99498586Y-117998586D01*
X99500000Y-117998000D01*
X101998000Y-117998000D01*
X101998000Y-116002000D01*
X93474622Y-116002000D01*
X93426389Y-116052325D01*
X93426134Y-116052549D01*
X93235219Y-116193749D01*
X93234930Y-116193927D01*
X93022899Y-116300831D01*
X93022585Y-116300957D01*
X92795537Y-116370489D01*
X92795205Y-116370561D01*
X92559672Y-116400723D01*
X92559333Y-116400737D01*
X92322090Y-116390659D01*
X92321754Y-116390616D01*
X92089627Y-116340588D01*
X92089302Y-116340489D01*
X92002000Y-116305408D01*
X92002000Y-117998000D01*
X91995215Y-117998000D01*
X91993068Y-117989985D01*
X91993000Y-117989467D01*
X91993000Y-116315585D01*
X91993105Y-116314946D01*
X91997653Y-116301466D01*
X91998432Y-116300445D01*
X91998734Y-116300242D01*
X91999963Y-116299905D01*
X92014166Y-116300709D01*
X92014799Y-116300850D01*
X92085873Y-116329410D01*
X92098678Y-116333331D01*
X92316491Y-116380275D01*
X92329791Y-116381978D01*
X92552395Y-116391434D01*
X92565777Y-116390865D01*
X92786811Y-116362561D01*
X92799905Y-116359738D01*
X93012941Y-116294497D01*
X93025383Y-116289498D01*
X93224341Y-116189185D01*
X93235756Y-116182157D01*
X93414898Y-116049664D01*
X93424947Y-116040820D01*
X93463114Y-116000998D01*
X93463421Y-116000737D01*
X93471316Y-115995278D01*
X93472053Y-115994963D01*
X93481463Y-115993040D01*
X93481863Y-115993000D01*
X101989467Y-115993000D01*
X101989985Y-115993068D01*
G37*
G36*
X128489985Y-69243068D02*
G01*
X128501606Y-69246181D01*
X128502503Y-69246700D01*
X128503300Y-69247498D01*
X128503817Y-69248393D01*
X128506932Y-69260015D01*
X128507000Y-69260533D01*
X128507000Y-69914737D01*
X128517511Y-69953966D01*
X128546034Y-69982488D01*
X128585263Y-69993000D01*
X129999924Y-69993000D01*
X130000440Y-69993068D01*
X130012031Y-69996163D01*
X130012925Y-69996676D01*
X130013729Y-69997475D01*
X130014249Y-69998368D01*
X130017404Y-70009943D01*
X130017474Y-70010459D01*
X130026160Y-71677762D01*
X130026075Y-71678350D01*
X130022216Y-71691128D01*
X130021560Y-71692104D01*
X130011184Y-71700505D01*
X130010671Y-71700807D01*
X129879110Y-71753673D01*
X129867152Y-71759701D01*
X129677411Y-71876528D01*
X129666638Y-71884496D01*
X129534863Y-72000474D01*
X129534573Y-72000687D01*
X129527140Y-72005156D01*
X129526468Y-72005410D01*
X129517929Y-72006968D01*
X129517570Y-72007000D01*
X121031336Y-72007000D01*
X121030820Y-72006932D01*
X121019228Y-72003836D01*
X121018334Y-72003323D01*
X121017530Y-72002524D01*
X121017010Y-72001631D01*
X121013855Y-71990056D01*
X121013785Y-71989540D01*
X121003475Y-70010602D01*
X121003541Y-70010083D01*
X121005669Y-70002000D01*
X121012430Y-70002000D01*
X121022830Y-71998000D01*
X129524055Y-71998000D01*
X129666193Y-71872903D01*
X129666465Y-71872701D01*
X129868666Y-71748201D01*
X129868969Y-71748048D01*
X130017215Y-71688476D01*
X130008430Y-70002000D01*
X128500000Y-70002000D01*
X128498586Y-70001414D01*
X128498000Y-70000000D01*
X128498000Y-69252000D01*
X122502000Y-69252000D01*
X122502000Y-70000000D01*
X122501414Y-70001414D01*
X122500000Y-70002000D01*
X121012430Y-70002000D01*
X121005669Y-70002000D01*
X121006612Y-69998418D01*
X121007128Y-69997516D01*
X121007919Y-69996721D01*
X121008818Y-69996201D01*
X121020469Y-69993069D01*
X121020988Y-69993000D01*
X122414737Y-69993000D01*
X122453966Y-69982488D01*
X122482488Y-69953966D01*
X122493000Y-69914737D01*
X122493000Y-69260533D01*
X122493068Y-69260015D01*
X122496181Y-69248394D01*
X122496699Y-69247498D01*
X122497498Y-69246699D01*
X122498394Y-69246181D01*
X122510015Y-69243068D01*
X122510533Y-69243000D01*
X128489467Y-69243000D01*
X128489985Y-69243068D01*
G37*
M02*
